<?xml version="1.0" encoding="UTF-8"?>
<svg version="1.1" xmlns="http://www.w3.org/2000/svg" width="648" height="73">
<path d="M0 0 C1.78181409 0.23308756 3.56371478 0.46551405 5.34570312 0.69726562 C7.05215994 0.92129227 8.75854303 1.14588131 10.46484375 1.37109375 C11.64928322 1.52740517 11.64928322 1.52740517 12.85765076 1.68687439 C16.62218168 2.19457249 20.34932902 2.75741765 24.0625 3.5625 C28.45510262 37.02104759 28.45510262 37.02104759 28.0625 53.5625 C18.56529983 55.33285629 9.05199513 56.35822562 -0.5625 57.1875 C-1.31118347 57.25286957 -2.05986694 57.31823914 -2.83123779 57.3855896 C-32.30651727 59.93069131 -32.30651727 59.93069131 -43.9375 56.5625 C-48.0908047 52.4091953 -46.36225908 39.36816865 -46.45239258 33.46533203 C-46.48413879 31.86304392 -46.53200485 30.26099441 -46.59594727 28.65966797 C-47.12278706 15.23694548 -47.12278706 15.23694548 -44.14086914 11.02441406 C-41.9453125 9.171875 -41.9453125 9.171875 -39.73486328 7.79589844 C-37.55618525 6.60467835 -37.55618525 6.60467835 -37.25 3.3125 C-37.146875 2.405 -37.04375 1.4975 -36.9375 0.5625 C-27.45208477 -6.54499112 -10.99767464 -1.48145206 0 0 Z " fill="#A9A9A9" transform="translate(71.9375,7.4375)"/>
<path d="M0 0 C0.91644287 0.00523682 1.83288574 0.01047363 2.77709961 0.01586914 C3.76645508 0.0190918 4.75581055 0.02231445 5.77514648 0.02563477 C6.81606445 0.03401367 7.85698242 0.04239258 8.92944336 0.05102539 C10.49662109 0.05779297 10.49662109 0.05779297 12.09545898 0.06469727 C14.68600996 0.07652627 17.27644895 0.0930085 19.86694336 0.11352539 C20.19694336 1.76352539 20.52694336 3.41352539 20.86694336 5.11352539 C21.52694336 5.11352539 22.18694336 5.11352539 22.86694336 5.11352539 C22.86694336 6.76352539 22.86694336 8.41352539 22.86694336 10.11352539 C23.52694336 10.11352539 24.18694336 10.11352539 24.86694336 10.11352539 C24.86694336 8.46352539 24.86694336 6.81352539 24.86694336 5.11352539 C25.85694336 4.78352539 26.84694336 4.45352539 27.86694336 4.11352539 C28.19694336 2.79352539 28.52694336 1.47352539 28.86694336 0.11352539 C34.47694336 0.11352539 40.08694336 0.11352539 45.86694336 0.11352539 C45.86694336 1.76352539 45.86694336 3.41352539 45.86694336 5.11352539 C46.85694336 5.11352539 47.84694336 5.11352539 48.86694336 5.11352539 C49.19694336 3.46352539 49.52694336 1.81352539 49.86694336 0.11352539 C56.79694336 0.11352539 63.72694336 0.11352539 70.86694336 0.11352539 C71.36194336 2.09352539 71.36194336 2.09352539 71.86694336 4.11352539 C73.18694336 4.77352539 74.50694336 5.43352539 75.86694336 6.11352539 C75.53694336 9.41352539 75.20694336 12.71352539 74.86694336 16.11352539 C75.85694336 16.11352539 76.84694336 16.11352539 77.86694336 16.11352539 C77.84631836 15.14415039 77.82569336 14.17477539 77.80444336 13.17602539 C77.86694336 10.11352539 77.86694336 10.11352539 78.86694336 9.11352539 C78.86694336 7.79352539 78.86694336 6.47352539 78.86694336 5.11352539 C78.86694336 1.11352539 78.86694336 1.11352539 79.86694336 0.11352539 C82.39743738 0.04038973 84.89999173 0.02105012 87.42944336 0.05102539 C88.49582031 0.05779297 88.49582031 0.05779297 89.58374023 0.06469727 C91.34484349 0.07651675 93.10590372 0.09445276 94.86694336 0.11352539 C94.99069336 0.75290039 95.11444336 1.39227539 95.24194336 2.05102539 C95.55131836 3.07196289 95.55131836 3.07196289 95.86694336 4.11352539 C96.85694336 4.60852539 96.85694336 4.60852539 97.86694336 5.11352539 C97.86694336 10.39352539 97.86694336 15.67352539 97.86694336 21.11352539 C98.85694336 21.11352539 99.84694336 21.11352539 100.86694336 21.11352539 C100.86694336 24.08352539 100.86694336 27.05352539 100.86694336 30.11352539 C97.59638768 30.30802321 94.32571794 30.49441248 91.05444336 30.67602539 C90.12567383 30.73209961 89.1969043 30.78817383 88.23999023 30.84594727 C87.34731445 30.89428711 86.45463867 30.94262695 85.53491211 30.99243164 C84.71273193 31.03956299 83.89055176 31.08669434 83.04345703 31.13525391 C80.86694336 31.11352539 80.86694336 31.11352539 77.86694336 30.11352539 C77.86694336 28.46352539 77.86694336 26.81352539 77.86694336 25.11352539 C76.87694336 25.11352539 75.88694336 25.11352539 74.86694336 25.11352539 C74.86694336 26.76352539 74.86694336 28.41352539 74.86694336 30.11352539 C71.56694336 30.11352539 68.26694336 30.11352539 64.86694336 30.11352539 C64.53694336 23.51352539 64.20694336 16.91352539 63.86694336 10.11352539 C62.87694336 10.11352539 61.88694336 10.11352539 60.86694336 10.11352539 C59.70550192 14.99535649 59.59670106 19.84580372 59.52514648 24.84985352 C59.44116211 26.81274414 59.44116211 26.81274414 58.86694336 30.11352539 C56.82397461 31.57055664 56.82397461 31.57055664 54.86694336 32.11352539 C54.86694336 31.45352539 54.86694336 30.79352539 54.86694336 30.11352539 C52.88694336 30.11352539 50.90694336 30.11352539 48.86694336 30.11352539 C48.86694336 26.48352539 48.86694336 22.85352539 48.86694336 19.11352539 C44.24694336 19.11352539 39.62694336 19.11352539 34.86694336 19.11352539 C34.86694336 19.77352539 34.86694336 20.43352539 34.86694336 21.11352539 C38.49694336 21.11352539 42.12694336 21.11352539 45.86694336 21.11352539 C45.86694336 24.08352539 45.86694336 27.05352539 45.86694336 30.11352539 C43.61829611 30.33598514 41.36791713 30.54099096 39.11694336 30.73852539 C37.23749023 30.91254883 37.23749023 30.91254883 35.32006836 31.09008789 C32.03107433 31.11241138 30.5567356 30.89313541 27.86694336 29.11352539 C28.19694336 27.79352539 28.52694336 26.47352539 28.86694336 25.11352539 C27.54694336 24.78352539 26.22694336 24.45352539 24.86694336 24.11352539 C24.86694336 22.79352539 24.86694336 21.47352539 24.86694336 20.11352539 C23.21694336 19.78352539 21.56694336 19.45352539 19.86694336 19.11352539 C20.85694336 18.78352539 21.84694336 18.45352539 22.86694336 18.11352539 C22.86694336 16.79352539 22.86694336 15.47352539 22.86694336 14.11352539 C19.23694336 14.44352539 15.60694336 14.77352539 11.86694336 15.11352539 C11.86694336 16.76352539 11.86694336 18.41352539 11.86694336 20.11352539 C12.85694336 20.44352539 13.84694336 20.77352539 14.86694336 21.11352539 C14.86694336 24.08352539 14.86694336 27.05352539 14.86694336 30.11352539 C12.59673592 30.30845734 10.32574047 30.49422957 8.05444336 30.67602539 C6.78987305 30.78043945 5.52530273 30.88485352 4.22241211 30.99243164 C0.86694336 31.11352539 0.86694336 31.11352539 -2.13305664 30.11352539 C-2.13305664 27.14352539 -2.13305664 24.17352539 -2.13305664 21.11352539 C-1.14305664 21.11352539 -0.15305664 21.11352539 0.86694336 21.11352539 C0.78001195 19.32093981 0.67183832 17.52937395 0.55444336 15.73852539 C0.49643555 14.74079102 0.43842773 13.74305664 0.37866211 12.71508789 C0.20979492 11.85657227 0.04092773 10.99805664 -0.13305664 10.11352539 C-1.12305664 9.45352539 -2.11305664 8.79352539 -3.13305664 8.11352539 C-3.38305664 4.55102539 -3.38305664 4.55102539 -3.13305664 1.11352539 C-2.13305664 0.11352539 -2.13305664 0.11352539 0 0 Z " fill="#151818" transform="translate(126.133056640625,20.886474609375)"/>
<path d="M0 0 C0.89259521 0.01434082 1.78519043 0.02868164 2.70483398 0.04345703 C19.62281237 0.45687491 19.62281237 0.45687491 25.5 4.375 C28.76740236 13.65302489 28.75396317 25.89032298 26.5 35.375 C25.37980469 35.36339844 24.25960937 35.35179687 23.10546875 35.33984375 C21.63281417 35.33046378 20.16015778 35.3213638 18.6875 35.3125 C17.58051758 35.29993164 17.58051758 35.29993164 16.45117188 35.28710938 C13.20077932 35.27240172 10.60595105 35.33968298 7.5 36.375 C5.75297481 36.49462115 4.00107302 36.55027184 2.25 36.5625 C1.33734375 36.57667969 0.4246875 36.59085938 -0.515625 36.60546875 C-4.03313465 36.33382861 -7.14245464 35.43154101 -10.5 34.375 C-11.11411526 29.78404123 -11.69728735 25.19093502 -12.23876953 20.59082031 C-12.40715285 19.16255207 -12.57968923 17.73476431 -12.75732422 16.30761719 C-12.98638927 14.41607389 -13.18145871 12.52050748 -13.375 10.625 C-13.55675781 8.96210938 -13.55675781 8.96210938 -13.7421875 7.265625 C-13.5 4.375 -13.5 4.375 -12.1015625 2.0078125 C-8.15933252 -0.46643995 -4.5590401 -0.13553789 0 0 Z " fill="#CACACA" transform="translate(64.5,15.625)"/>
<path d="M0 0 C0.43072932 6.83165329 0.85755979 13.66354233 1.28173828 20.49560547 C1.42635749 22.81760109 1.57185433 25.13954223 1.71826172 27.46142578 C1.92909301 30.8074761 2.13672054 34.15371256 2.34375 37.5 C2.40937134 38.5305249 2.47499268 39.5610498 2.54260254 40.62280273 C2.87783565 46.09490428 3.06852897 51.51768267 3 57 C7.00254456 57.09181134 7.00254456 57.09181134 11 57 C11.33 56.67 11.66 56.34 12 56 C13.48229251 55.84176085 14.97164893 55.74878774 16.4609375 55.68359375 C17.8684729 55.6206311 17.8684729 55.6206311 19.30444336 55.55639648 C20.31772705 55.51716064 21.33101074 55.4779248 22.375 55.4375 C23.40181885 55.3950415 24.4286377 55.35258301 25.48657227 55.30883789 C34.99372595 54.9444471 44.48764238 54.9001036 54 55 C51.10267459 56.93155027 50.2584291 57.28522398 46.99780273 57.59423828 C45.7939518 57.7141362 45.7939518 57.7141362 44.56578064 57.8364563 C43.26284813 57.95221512 43.26284813 57.95221512 41.93359375 58.0703125 C41.02609879 58.15626678 40.11860382 58.24222107 39.18360901 58.33078003 C37.25308311 58.51133229 35.32214997 58.68757359 33.39086914 58.85986328 C30.49950234 59.11943378 27.6102219 59.39647847 24.72070312 59.67578125 C15.85159297 60.50675647 7.00878945 61.17556286 -1.90234375 61.2421875 C-2.95972496 61.25670456 -2.95972496 61.25670456 -4.03846741 61.27151489 C-15.78796372 61.21203628 -15.78796372 61.21203628 -19 58 C-20.2915005 50.67349967 -20.40165324 43.31886848 -20.51489258 35.90283203 C-20.54663879 34.30054392 -20.59450485 32.69849441 -20.65844727 31.09716797 C-21.18528706 17.67444548 -21.18528706 17.67444548 -18.20336914 13.46191406 C-16.0078125 11.609375 -16.0078125 11.609375 -13.79736328 10.23339844 C-11.61868525 9.04217835 -11.61868525 9.04217835 -11.3125 5.75 C-11.209375 4.8425 -11.10625 3.935 -11 3 C-7.36838001 -0.11281713 -4.63553111 -0.11540741 0 0 Z " fill="#5E5955" transform="translate(46,5)"/>
<path d="M0 0 C5.61 0 11.22 0 17 0 C17 1.65 17 3.3 17 5 C19.97 5 22.94 5 26 5 C26 3.35 26 1.7 26 0 C31.61 0 37.22 0 43 0 C43.495 1.98 43.495 1.98 44 4 C44.66 4.33 45.32 4.66 46 5 C46 9.62 46 14.24 46 19 C42.37 19.33 38.74 19.66 35 20 C37.64 20.33 40.28 20.66 43 21 C43 23.97 43 26.94 43 30 C37.39 30 31.78 30 26 30 C25.505 27.525 25.505 27.525 25 25 C24.01 24.67 23.02 24.34 22 24 C22 22.35 22 20.7 22 19 C21.34 19 20.68 19 20 19 C20 20.98 20 22.96 20 25 C19.01 25 18.02 25 17 25 C17 26.65 17 28.3 17 30 C14.93906592 30.223293 12.8761161 30.42802887 10.8125 30.625 C9.66394531 30.74101563 8.51539063 30.85703125 7.33203125 30.9765625 C3.96669584 31.00023426 1.98778294 30.47419799 -1 29 C-0.67 27.68 -0.34 26.36 0 25 C-0.99 25 -1.98 25 -3 25 C-3 23.02 -3 21.04 -3 19 C-3.66 19 -4.32 19 -5 19 C-5 16.03 -5 13.06 -5 10 C-4.34 10 -3.68 10 -3 10 C-3 8.35 -3 6.7 -3 5 C-2.01 5 -1.02 5 0 5 C0 3.35 0 1.7 0 0 Z M20 6 C20 7.32 20 8.64 20 10 C20.66 10 21.32 10 22 10 C21.67 8.68 21.34 7.36 21 6 C20.67 6 20.34 6 20 6 Z M7 9 C7 10.65 7 12.3 7 14 C6.01 14 5.02 14 4 14 C4 14.66 4 15.32 4 16 C4.99 16 5.98 16 7 16 C7 17.65 7 19.3 7 21 C7.99 21 8.98 21 10 21 C10 19.35 10 17.7 10 16 C13.3 16 16.6 16 20 16 C20 15.34 20 14.68 20 14 C16.7 14 13.4 14 10 14 C10 12.68 10 11.36 10 10 C9.01 9.67 8.02 9.34 7 9 Z " fill="#78B2F7" transform="translate(363,21)"/>
<path d="M0 0 C4.62 0 9.24 0 14 0 C14.33 1.32 14.66 2.64 15 4 C15.99 4.33 16.98 4.66 18 5 C18 6.65 18 8.3 18 10 C19.32 10 20.64 10 22 10 C22 8.35 22 6.7 22 5 C23.32 5 24.64 5 26 5 C26 3.35 26 1.7 26 0 C30.62 0 35.24 0 40 0 C40.495 1.98 40.495 1.98 41 4 C42.9837767 5.28436734 42.9837767 5.28436734 45 6 C44.67 7.32 44.34 8.64 44 10 C44.66 10 45.32 10 46 10 C46 12.97 46 15.94 46 19 C45.34 19 44.68 19 44 19 C44.185625 19.61875 44.37125 20.2375 44.5625 20.875 C45 23 45 23 44 25 C43.01 25 42.02 25 41 25 C41 26.65 41 28.3 41 30 C35.72 30 30.44 30 25 30 C25 28.68 25 27.36 25 26 C24.01 25.67 23.02 25.34 22 25 C22 23.02 22 21.04 22 19 C21.01 19.33 20.02 19.66 19 20 C18.67 21.65 18.34 23.3 18 25 C17.01 25 16.02 25 15 25 C15 26.65 15 28.3 15 30 C10.38 30.33 5.76 30.66 1 31 C0.34 29.35 -0.32 27.7 -1 26 C-1.99 25.34 -2.98 24.68 -4 24 C-4.984375 21.25 -4.984375 21.25 -5.75 18 C-6.01296875 16.9275 -6.2759375 15.855 -6.546875 14.75 C-7 12 -7 12 -6 10 C-5.34 10 -4.68 10 -4 10 C-4 8.35 -4 6.7 -4 5 C-2.68 5 -1.36 5 0 5 C0 3.35 0 1.7 0 0 Z M6 9 C6 10.65 6 12.3 6 14 C5.01 14.495 5.01 14.495 4 15 C4.66 15 5.32 15 6 15 C6 16.98 6 18.96 6 21 C6.66 21 7.32 21 8 21 C8 19.02 8 17.04 8 15 C8.66 14.67 9.32 14.34 10 14 C9.34 14 8.68 14 8 14 C8 12.35 8 10.7 8 9 C7.34 9 6.68 9 6 9 Z " fill="#202526" transform="translate(259,21)"/>
<path d="M0 0 C6.93 0 13.86 0 21 0 C20.67 0.99 20.34 1.98 20 3 C19.97477982 6.43354767 20.02735663 9.85165115 20.12695312 13.28320312 C20.15670448 15.1890397 20.0849523 17.0958253 20 19 C19.34 19.66 18.68 20.32 18 21 C17.63105418 23.03060659 17.63105418 23.03060659 17.5859375 25.3515625 C17.54726563 26.20234375 17.50859375 27.053125 17.46875 27.9296875 C17.42234375 29.26386719 17.42234375 29.26386719 17.375 30.625 C17.33632813 31.5221875 17.29765625 32.419375 17.2578125 33.34375 C17.16340643 35.5622927 17.07783252 37.78082403 17 40 C12.65484608 41.13902093 8.61173186 40.93025974 4.1875 40.5625 C0.6296875 40.2840625 0.6296875 40.2840625 -3 40 C-3 33.07 -3 26.14 -3 19 C-3.99 19 -4.98 19 -6 19 C-6 16.36 -6 13.72 -6 11 C-5.01 10.67 -4.02 10.34 -3 10 C-3 8.35 -3 6.7 -3 5 C-2.01 5 -1.02 5 0 5 C0 3.35 0 1.7 0 0 Z " fill="#B6D9FD" transform="translate(311,11)"/>
<path d="M0 0 C2.97 0 5.94 0 9 0 C9.95024979 3.69541586 9.95024979 6.30458414 9 10 C9.94875 9.814375 10.8975 9.62875 11.875 9.4375 C15 9 15 9 17 10 C17 12.97 17 15.94 17 19 C15.02 19.66 13.04 20.32 11 21 C11 23.97 11 26.94 11 30 C12.98 30.33 14.96 30.66 17 31 C18.125 37.75 18.125 37.75 17 40 C12.05 40 7.1 40 2 40 C2 38.35 2 36.7 2 35 C1.34 35 0.68 35 0 35 C-0.33 29.72 -0.66 24.44 -1 19 C-2.65 19 -4.3 19 -6 19 C-6 16.03 -6 13.06 -6 10 C-4.02 10 -2.04 10 0 10 C0 6.7 0 3.4 0 0 Z " fill="#AFD4FD" transform="translate(233,11)"/>
<path d="M0 0 C6.93 0 13.86 0 21 0 C21.33 1.32 21.66 2.64 22 4 C23.9837767 5.28436734 23.9837767 5.28436734 26 6 C25.01 6.495 25.01 6.495 24 7 C24 14.26 24 21.52 24 29 C21.36 29 18.72 29 16 29 C16 22.07 16 15.14 16 8 C14.02 8 12.04 8 10 8 C10 9.65 10 11.3 10 13 C9.34 13 8.68 13 8 13 C8 18.28 8 23.56 8 29 C5.36 29 2.72 29 0 29 C0 21.41 0 13.82 0 6 C-0.66 5.67 -1.32 5.34 -2 5 C-1.34 3.35 -0.68 1.7 0 0 Z " fill="#8EBAD6" transform="translate(176,21)"/>
<path d="M0 0 C3.3 0 6.6 0 10 0 C10 10.23 10 20.46 10 31 C11.65 31 13.3 31 15 31 C15.85856655 34.4342662 15.97591583 36.61682513 15 40 C8.11422188 41.01593448 1.90188971 40.83854735 -5 40 C-5 37.03 -5 34.06 -5 31 C-3.35 31 -1.7 31 0 31 C-0.185625 29.7625 -0.37125 28.525 -0.5625 27.25 C-0.94711223 24.23720423 -1.0874594 21.89989173 0 19 C-1.32 19 -2.64 19 -4 19 C-4 16.03 -4 13.06 -4 10 C-3.01 9.67 -2.02 9.34 -1 9 C-0.67 6.03 -0.34 3.06 0 0 Z " fill="#A7D3EE" transform="translate(339,11)"/>
<path d="M0 0 C9.1726912 0.60148795 18.26351544 1.56639988 27.37792969 2.72949219 C29.52492609 3.00317742 31.67255227 3.27144398 33.8203125 3.5390625 C45.20617959 4.97307733 45.20617959 4.97307733 50 6 C50 6.99 50 7.98 50 9 C41.79805542 9.29292659 33.77024508 8.30983627 25.64208984 7.34594727 C23.24248029 7.06160896 20.84206733 6.78507079 18.44140625 6.50976562 C16.90359327 6.33118121 15.36583093 6.15216011 13.828125 5.97265625 C13.11658264 5.89032242 12.40504028 5.80798859 11.67193604 5.72315979 C8.07563114 5.29454141 4.53899417 4.77302702 1 4 C1.1539624 4.52295654 1.3079248 5.04591309 1.46655273 5.5847168 C2.13444068 8.60870555 2.32980891 11.55379051 2.53515625 14.64453125 C2.59962196 15.614795 2.59962196 15.614795 2.66539001 16.60466003 C2.75542829 17.97712345 2.84356497 19.34971276 2.92993164 20.72241211 C3.05967 22.76788185 3.19833024 24.81260197 3.33789062 26.85742188 C3.93307415 35.91908076 4.11036029 44.91857434 4 54 C5.54155762 53.86368164 5.54155762 53.86368164 7.11425781 53.72460938 C10.98295182 53.38390929 14.85221834 53.05012334 18.72167969 52.71826172 C20.38590213 52.57459478 22.0499709 52.42913456 23.71386719 52.28173828 C33.16209969 51.44606429 42.50297915 50.7452364 52 51 C51.93941406 50.36199463 51.87882812 49.72398926 51.81640625 49.06665039 C50.59713871 36.00993638 49.67923713 23.11563738 50 10 C50.33 10 50.66 10 51 10 C51.43543817 14.31848119 51.86224188 18.63771173 52.28173828 22.95776367 C52.4249896 24.42120246 52.57042555 25.88442938 52.71826172 27.34741211 C53.65116917 36.59715779 54.21797589 45.68859474 54 55 C48.0853384 55.87624616 42.33906303 56.04975826 36.375 56 C28.23201957 55.93960602 20.09901284 56.06682782 12 57 C11.505 57.495 11.505 57.495 11 58 C5.47058824 58.23529412 5.47058824 58.23529412 3 57 C2.60522461 55.12084961 2.60522461 55.12084961 2.40234375 52.65234375 C2.3235498 51.74524658 2.24475586 50.83814941 2.16357422 49.90356445 C2.05166748 48.43536255 2.05166748 48.43536255 1.9375 46.9375 C1.85516113 45.93614014 1.77282227 44.93478027 1.68798828 43.90307617 C1.44823677 40.93609182 1.22275129 37.96830239 1 35 C0.93925293 34.24041992 0.87850586 33.48083984 0.81591797 32.69824219 C-0.05468049 21.78847408 -0.10699194 10.93695427 0 0 Z " fill="#CFC9C2" transform="translate(46,5)"/>
<path d="M0 0 C3.96 0 7.92 0 12 0 C12 1.65 12 3.3 12 5 C12.99 5 13.98 5 15 5 C15 6.65 15 8.3 15 10 C15.99 10 16.98 10 18 10 C18 12.31 18 14.62 18 17 C17.34 17 16.68 17 16 17 C16 18.65 16 20.3 16 22 C14.68 22.33 13.36 22.66 12 23 C12 24.65 12 26.3 12 28 C8.04 28 4.08 28 0 28 C0 26.35 0 24.7 0 23 C-1.32 22.67 -2.64 22.34 -4 22 C-4 20.35 -4 18.7 -4 17 C-4.66 17 -5.32 17 -6 17 C-6 14.69 -6 12.38 -6 10 C-5.01 10 -4.02 10 -3 10 C-3 8.35 -3 6.7 -3 5 C-2.01 5 -1.02 5 0 5 C0 3.35 0 1.7 0 0 Z " fill="#92BDCF" transform="translate(286,22)"/>
<path d="M0 0 C4.62 0 9.24 0 14 0 C14 1.65 14 3.3 14 5 C14.99 5 15.98 5 17 5 C17 10.28 17 15.56 17 21 C17.66 21 18.32 21 19 21 C19 23.31 19 25.62 19 28 C12.4 28 5.8 28 -1 28 C-1 26.35 -1 24.7 -1 23 C-1.99 22.67 -2.98 22.34 -4 22 C-4 20.02 -4 18.04 -4 16 C-3.01 16 -2.02 16 -1 16 C-1 14.02 -1 12.04 -1 10 C2.3 10 5.6 10 9 10 C9 9.01 9 8.02 9 7 C6.03 7 3.06 7 0 7 C0 4.69 0 2.38 0 0 Z " fill="#AAD4FB" transform="translate(206,22)"/>
<path d="M0 0 C4.95 0 9.9 0 15 0 C15 1.65 15 3.3 15 5 C15.99 5 16.98 5 18 5 C18 8.96 18 12.92 18 17 C13.38 17 8.76 17 4 17 C4 18.32 4 19.64 4 21 C7.63 21 11.26 21 15 21 C15 23.31 15 25.62 15 28 C10.05 28 5.1 28 0 28 C0 26.35 0 24.7 0 23 C-0.99 23 -1.98 23 -3 23 C-3 21.02 -3 19.04 -3 17 C-3.66 17 -4.32 17 -5 17 C-5.17835515 12.45194365 -4.99785435 9.1205746 -3 5 C-2.01 5 -1.02 5 0 5 C0 3.35 0 1.7 0 0 Z " fill="#96C8EE" transform="translate(156,22)"/>
<path d="M0 0 C6.6 0 13.2 0 20 0 C20 1.65 20 3.3 20 5 C20.66 5 21.32 5 22 5 C22 7.31 22 9.62 22 12 C19.69 12 17.38 12 15 12 C15 10.35 15 8.7 15 7 C14.34 7 13.68 7 13 7 C13 8.65 13 10.3 13 12 C12.34 12 11.68 12 11 12 C11 14.97 11 17.94 11 21 C12.32 21 13.64 21 15 21 C15 23.31 15 25.62 15 28 C9.72 28 4.44 28 -1 28 C-1 25.69 -1 23.38 -1 21 C0.65 21 2.3 21 4 21 C4 16.38 4 11.76 4 7 C2.68 7 1.36 7 0 7 C0 4.69 0 2.38 0 0 Z " fill="#8BC0F1" transform="translate(125,22)"/>
<path d="M0 0 C4.29 0 8.58 0 13 0 C13 1.65 13 3.3 13 5 C13.99 5 14.98 5 16 5 C16 6.98 16 8.96 16 11 C13.69 11 11.38 11 9 11 C9 9.35 9 7.7 9 6 C7.35 6 5.7 6 4 6 C4 7.65 4 9.3 4 11 C3.01 11 2.02 11 1 11 C1 12.32 1 13.64 1 15 C1.99 15 2.98 15 4 15 C4 16.65 4 18.3 4 20 C5.65 20 7.3 20 9 20 C9 18.35 9 16.7 9 15 C11.64 15 14.28 15 17 15 C17 16.98 17 18.96 17 21 C16.01 21.33 15.02 21.66 14 22 C14 23.65 14 25.3 14 27 C9.05 27 4.1 27 -1 27 C-1 25.35 -1 23.7 -1 22 C-1.99 22 -2.98 22 -4 22 C-4 20.02 -4 18.04 -4 16 C-4.66 16 -5.32 16 -6 16 C-6 14.02 -6 12.04 -6 10 C-5.01 10 -4.02 10 -3 10 C-3 8.35 -3 6.7 -3 5 C-2.01 5 -1.02 5 0 5 C0 3.35 0 1.7 0 0 Z " fill="#8FBFE2" transform="translate(365,23)"/>
<path d="M0 0 C3.96 0 7.92 0 12 0 C12 1.65 12 3.3 12 5 C13.32 5 14.64 5 16 5 C16.33 6.98 16.66 8.96 17 11 C15.02 11 13.04 11 11 11 C11 12.65 11 14.3 11 16 C10.67 14.68 10.34 13.36 10 12 C9.34 12 8.68 12 8 12 C8 10.35 8 8.7 8 7 C6.68 7 5.36 7 4 7 C4 8.65 4 10.3 4 12 C3.34 12 2.68 12 2 12 C2 12.99 2 13.98 2 15 C2.66 15 3.32 15 4 15 C4 16.98 4 18.96 4 21 C5.32 21 6.64 21 8 21 C8 19.35 8 17.7 8 16 C8.33 16.66 8.66 17.32 9 18 C11.02463255 18.65213292 11.02463255 18.65213292 13 19 C13 19.66 13 20.32 13 21 C13.66 21 14.32 21 15 21 C15 21.66 15 22.32 15 23 C14.01 23 13.02 23 12 23 C12 24.65 12 26.3 12 28 C8.04 28 4.08 28 0 28 C0 26.35 0 24.7 0 23 C-1.32 22.67 -2.64 22.34 -4 22 C-4.98248524 17.9472484 -5.08159574 14.16138263 -5 10 C-4.34 10 -3.68 10 -3 10 C-3 8.35 -3 6.7 -3 5 C-2.01 5 -1.02 5 0 5 C0 3.35 0 1.7 0 0 Z " fill="#96C9F7" transform="translate(260,22)"/>
<path d="M0 0 C5.61 0 11.22 0 17 0 C17 1.65 17 3.3 17 5 C18.32 5.33 19.64 5.66 21 6 C20.67 7.32 20.34 8.64 20 10 C20.66 10 21.32 10 22 10 C22.33 9.01 22.66 8.02 23 7 C23 8.32 23 9.64 23 11 C22.34 11 21.68 11 21 11 C21 13.31 21 15.62 21 18 C21.66 18 22.32 18 23 18 C23.33 19.65 23.66 21.3 24 23 C24.99 23.33 25.98 23.66 27 24 C27 25.65 27 27.3 27 29 C31.95 29 36.9 29 42 29 C42 26.69 42 24.38 42 22 C38.37 22 34.74 22 31 22 C31 20.68 31 19.36 31 18 C35.62 18 40.24 18 45 18 C44.87625 16.205625 44.7525 14.41125 44.625 12.5625 C44.52058594 11.04849609 44.52058594 11.04849609 44.4140625 9.50390625 C44.27742188 8.67761719 44.14078125 7.85132813 44 7 C43.34 6.67 42.68 6.34 42 6 C42 4.35 42 2.7 42 1 C37.05 1 32.1 1 27 1 C27 2.65 27 4.3 27 6 C25.68 5.67 24.36 5.34 23 5 C23.99 5 24.98 5 26 5 C26 3.35 26 1.7 26 0 C31.61 0 37.22 0 43 0 C43.495 1.98 43.495 1.98 44 4 C44.66 4.33 45.32 4.66 46 5 C46 9.62 46 14.24 46 19 C42.37 19.33 38.74 19.66 35 20 C37.64 20.33 40.28 20.66 43 21 C43 23.97 43 26.94 43 30 C37.39 30 31.78 30 26 30 C25.505 27.525 25.505 27.525 25 25 C24.01 24.67 23.02 24.34 22 24 C22 22.35 22 20.7 22 19 C21.34 19 20.68 19 20 19 C20 20.98 20 22.96 20 25 C19.01 25 18.02 25 17 25 C17 26.65 17 28.3 17 30 C14.93906592 30.223293 12.8761161 30.42802887 10.8125 30.625 C9.66394531 30.74101563 8.51539063 30.85703125 7.33203125 30.9765625 C3.96669584 31.00023426 1.98778294 30.47419799 -1 29 C-0.67 27.68 -0.34 26.36 0 25 C-0.99 25 -1.98 25 -3 25 C-3 23.02 -3 21.04 -3 19 C-3.66 19 -4.32 19 -5 19 C-5 16.03 -5 13.06 -5 10 C-4.34 10 -3.68 10 -3 10 C-3 8.35 -3 6.7 -3 5 C-2.01 5 -1.02 5 0 5 C0 3.35 0 1.7 0 0 Z M2 2 C2 3.65 2 5.3 2 7 C1.01 7 0.02 7 -1 7 C-1 8.65 -1 10.3 -1 12 C-1.99 12 -2.98 12 -4 12 C-4 13.98 -4 15.96 -4 18 C-3.34 18 -2.68 18 -2 18 C-2 19.98 -2 21.96 -2 24 C-1.01 24 -0.02 24 1 24 C1 25.65 1 27.3 1 29 C5.95 29 10.9 29 16 29 C16 27.35 16 25.7 16 24 C16.99 23.67 17.98 23.34 19 23 C19 21.02 19 19.04 19 17 C16.36 17 13.72 17 11 17 C11 18.65 11 20.3 11 22 C9.35 22 7.7 22 6 22 C6 20.35 6 18.7 6 17 C5.01 17 4.02 17 3 17 C3 15.68 3 14.36 3 13 C3.99 13 4.98 13 6 13 C6 11.35 6 9.7 6 8 C7.65 8 9.3 8 11 8 C11 9.65 11 11.3 11 13 C13.31 13 15.62 13 18 13 C18 11.02 18 9.04 18 7 C17.01 7 16.02 7 15 7 C15 5.35 15 3.7 15 2 C10.71 2 6.42 2 2 2 Z M7 9 C7 10.65 7 12.3 7 14 C6.01 14 5.02 14 4 14 C4 14.66 4 15.32 4 16 C4.99 16 5.98 16 7 16 C7 17.65 7 19.3 7 21 C7.99 21 8.98 21 10 21 C10 19.35 10 17.7 10 16 C13.3 16 16.6 16 20 16 C20 15.34 20 14.68 20 14 C16.7 14 13.4 14 10 14 C10 12.68 10 11.36 10 10 C9.01 9.67 8.02 9.34 7 9 Z " fill="#1A1D1E" transform="translate(363,21)"/>
<path d="M0 0 C5.94 0 11.88 0 18 0 C18 0.33 18 0.66 18 1 C15.69 1 13.38 1 11 1 C11 2.98 11 4.96 11 7 C10.01 7.495 10.01 7.495 9 8 C8.67 8.99 8.34 9.98 8 11 C7.01 11 6.02 11 5 11 C5 9.68 5 8.36 5 7 C5.66 7 6.32 7 7 7 C7 5.35 7 3.7 7 2 C5.35 2 3.7 2 2 2 C2 3.65 2 5.3 2 7 C1.01 7 0.02 7 -1 7 C-1 8.65 -1 10.3 -1 12 C-1.66 12 -2.32 12 -3 12 C-3 13.65 -3 15.3 -3 17 C-2.34 17 -1.68 17 -1 17 C-0.95101563 17.85464844 -0.90203125 18.70929687 -0.8515625 19.58984375 C-0.77679688 20.69457031 -0.70203125 21.79929687 -0.625 22.9375 C-0.52058594 24.59072266 -0.52058594 24.59072266 -0.4140625 26.27734375 C-0.27742188 27.17582031 -0.14078125 28.07429688 0 29 C0.66 29.33 1.32 29.66 2 30 C1.67 32.31 1.34 34.62 1 37 C2.32 37.33 3.64 37.66 5 38 C5 31.4 5 24.8 5 18 C5.99 18 6.98 18 8 18 C8 24.93 8 31.86 8 39 C10.31 39 12.62 39 15 39 C15 32.07 15 25.14 15 18 C16.32 18 17.64 18 19 18 C19 15.69 19 13.38 19 11 C17.68 11 16.36 11 15 11 C15 10.01 15 9.02 15 8 C15.99 8 16.98 8 18 8 C18.33 6.68 18.66 5.36 19 4 C20.29205445 8.84520419 20.51999304 14.02040564 20 19 C19.34 19.66 18.68 20.32 18 21 C17.63105418 23.03060659 17.63105418 23.03060659 17.5859375 25.3515625 C17.54726563 26.20234375 17.50859375 27.053125 17.46875 27.9296875 C17.42234375 29.26386719 17.42234375 29.26386719 17.375 30.625 C17.33632813 31.5221875 17.29765625 32.419375 17.2578125 33.34375 C17.16340643 35.5622927 17.07783252 37.78082403 17 40 C12.65484608 41.13902093 8.61173186 40.93025974 4.1875 40.5625 C0.6296875 40.2840625 0.6296875 40.2840625 -3 40 C-3 33.07 -3 26.14 -3 19 C-3.99 19 -4.98 19 -6 19 C-6 16.36 -6 13.72 -6 11 C-5.01 10.67 -4.02 10.34 -3 10 C-3 8.35 -3 6.7 -3 5 C-2.01 5 -1.02 5 0 5 C0 3.35 0 1.7 0 0 Z " fill="#293133" transform="translate(311,11)"/>
<path d="M0 0 C3.96 0.33 7.92 0.66 12 1 C12 1.99 12 2.98 12 4 C17.28 4.66 22.56 5.32 28 6 C28 6.33 28 6.66 28 7 C15.625 7.495 15.625 7.495 3 8 C3.66 19.22 4.32 30.44 5 42 C9.29 42.66 13.58 43.32 18 44 C18 44.33 18 44.66 18 45 C32.85 45.495 32.85 45.495 48 46 C48 46.33 48 46.66 48 47 C43.03825297 47.43215587 38.07610139 47.85920792 33.11352539 48.28173828 C31.42883743 48.42587753 29.74426371 48.57135921 28.05981445 48.71826172 C25.62480737 48.93037789 23.18941674 49.13750386 20.75390625 49.34375 C20.01290176 49.40937134 19.27189728 49.47499268 18.50843811 49.54260254 C13.28330666 49.97844122 8.28612066 50 3 50 C2.01 33.5 1.02 17 0 0 Z " fill="#898989" transform="translate(47,9)"/>
<path d="M0 0 C0.99 0 1.98 0 3 0 C3.33 1.65 3.66 3.3 4 5 C6.64 5 9.28 5 12 5 C12 3.68 12 2.36 12 1 C13.32 1.66 14.64 2.32 16 3 C16 6.96 16 10.92 16 15 C15.0925 15.226875 14.185 15.45375 13.25 15.6875 C9.83894399 16.7183749 9.83894399 16.7183749 8.1875 19.625 C6 22 6 22 3.75390625 22.32421875 C1.48314985 22.31359118 -0.74020065 22.2172884 -3 22 C-3.05410687 20.22950311 -3.09284119 18.45853151 -3.125 16.6875 C-3.14820313 15.70136719 -3.17140625 14.71523438 -3.1953125 13.69921875 C-3 11 -3 11 -1 8 C-0.54860541 5.9507906 -0.54860541 5.9507906 -0.375 3.8125 C-0.25125 2.554375 -0.1275 1.29625 0 0 Z " fill="#C1C1C2" transform="translate(64,23)"/>
<path d="M0 0 C0.91644287 0.00523682 1.83288574 0.01047363 2.77709961 0.01586914 C3.76645508 0.0190918 4.75581055 0.02231445 5.77514648 0.02563477 C6.81606445 0.03401367 7.85698242 0.04239258 8.92944336 0.05102539 C10.49662109 0.05779297 10.49662109 0.05779297 12.09545898 0.06469727 C14.68600996 0.07652627 17.27644895 0.0930085 19.86694336 0.11352539 C20.19694336 1.76352539 20.52694336 3.41352539 20.86694336 5.11352539 C21.52694336 5.11352539 22.18694336 5.11352539 22.86694336 5.11352539 C22.86694336 6.76352539 22.86694336 8.41352539 22.86694336 10.11352539 C23.52694336 10.11352539 24.18694336 10.11352539 24.86694336 10.11352539 C24.86694336 8.46352539 24.86694336 6.81352539 24.86694336 5.11352539 C25.85694336 4.78352539 26.84694336 4.45352539 27.86694336 4.11352539 C28.19694336 2.79352539 28.52694336 1.47352539 28.86694336 0.11352539 C34.47694336 0.11352539 40.08694336 0.11352539 45.86694336 0.11352539 C45.86694336 1.76352539 45.86694336 3.41352539 45.86694336 5.11352539 C46.52694336 5.44352539 47.18694336 5.77352539 47.86694336 6.11352539 C46.87694336 6.11352539 45.88694336 6.11352539 44.86694336 6.11352539 C44.86694336 4.46352539 44.86694336 2.81352539 44.86694336 1.11352539 C39.91694336 1.11352539 34.96694336 1.11352539 29.86694336 1.11352539 C29.86694336 2.76352539 29.86694336 4.41352539 29.86694336 6.11352539 C28.87694336 6.44352539 27.88694336 6.77352539 26.86694336 7.11352539 C26.20694336 10.74352539 25.54694336 14.37352539 24.86694336 18.11352539 C25.52694336 18.11352539 26.18694336 18.11352539 26.86694336 18.11352539 C26.86694336 20.09352539 26.86694336 22.07352539 26.86694336 24.11352539 C27.85694336 24.11352539 28.84694336 24.11352539 29.86694336 24.11352539 C29.86694336 25.76352539 29.86694336 27.41352539 29.86694336 29.11352539 C29.20694336 28.78352539 28.54694336 28.45352539 27.86694336 28.11352539 C28.19694336 27.12352539 28.52694336 26.13352539 28.86694336 25.11352539 C27.54694336 24.78352539 26.22694336 24.45352539 24.86694336 24.11352539 C24.86694336 22.79352539 24.86694336 21.47352539 24.86694336 20.11352539 C23.21694336 19.78352539 21.56694336 19.45352539 19.86694336 19.11352539 C20.85694336 18.78352539 21.84694336 18.45352539 22.86694336 18.11352539 C22.86694336 16.79352539 22.86694336 15.47352539 22.86694336 14.11352539 C19.23694336 14.44352539 15.60694336 14.77352539 11.86694336 15.11352539 C11.86694336 16.76352539 11.86694336 18.41352539 11.86694336 20.11352539 C12.85694336 20.44352539 13.84694336 20.77352539 14.86694336 21.11352539 C14.86694336 24.08352539 14.86694336 27.05352539 14.86694336 30.11352539 C12.5973915 30.33538383 10.32620581 30.54058054 8.05444336 30.73852539 C6.15758789 30.91254883 6.15758789 30.91254883 4.22241211 31.09008789 C0.86694336 31.11352539 0.86694336 31.11352539 -2.13305664 29.11352539 C3.14694336 29.11352539 8.42694336 29.11352539 13.86694336 29.11352539 C13.86694336 26.80352539 13.86694336 24.49352539 13.86694336 22.11352539 C12.54694336 22.11352539 11.22694336 22.11352539 9.86694336 22.11352539 C9.86694336 19.14352539 9.86694336 16.17352539 9.86694336 13.11352539 C10.52694336 13.11352539 11.18694336 13.11352539 11.86694336 13.11352539 C11.86694336 11.46352539 11.86694336 9.81352539 11.86694336 8.11352539 C12.52694336 8.11352539 13.18694336 8.11352539 13.86694336 8.11352539 C13.86694336 9.76352539 13.86694336 11.41352539 13.86694336 13.11352539 C16.17694336 13.11352539 18.48694336 13.11352539 20.86694336 13.11352539 C20.86694336 10.80352539 20.86694336 8.49352539 20.86694336 6.11352539 C20.20694336 6.11352539 19.54694336 6.11352539 18.86694336 6.11352539 C18.86694336 4.46352539 18.86694336 2.81352539 18.86694336 1.11352539 C12.26694336 1.11352539 5.66694336 1.11352539 -1.13305664 1.11352539 C-1.13305664 3.42352539 -1.13305664 5.73352539 -1.13305664 8.11352539 C0.18694336 8.11352539 1.50694336 8.11352539 2.86694336 8.11352539 C2.86694336 12.73352539 2.86694336 17.35352539 2.86694336 22.11352539 C1.21694336 22.11352539 -0.43305664 22.11352539 -2.13305664 22.11352539 C-1.14305664 21.78352539 -0.15305664 21.45352539 0.86694336 21.11352539 C0.78001195 19.32093981 0.67183832 17.52937395 0.55444336 15.73852539 C0.49643555 14.74079102 0.43842773 13.74305664 0.37866211 12.71508789 C0.20979492 11.85657227 0.04092773 10.99805664 -0.13305664 10.11352539 C-1.12305664 9.45352539 -2.11305664 8.79352539 -3.13305664 8.11352539 C-3.38305664 4.55102539 -3.38305664 4.55102539 -3.13305664 1.11352539 C-2.13305664 0.11352539 -2.13305664 0.11352539 0 0 Z " fill="#131616" transform="translate(126.133056640625,20.886474609375)"/>
<path d="M0 0 C3.3 0 6.6 0 10 0 C10 1.65 10 3.3 10 5 C10.99 5 11.98 5 13 5 C13 6.65 13 8.3 13 10 C13.99 10 14.98 10 16 10 C15.67 11.65 15.34 13.3 15 15 C14.34 15 13.68 15 13 15 C13.33 17.31 13.66 19.62 14 22 C13.01 22 12.02 22 11 22 C11 23.65 11 25.3 11 27 C7.04 27 3.08 27 -1 27 C-1 25.02 -1 23.04 -1 21 C-0.01 21 0.98 21 2 21 C2 19.02 2 17.04 2 15 C2.33 15 2.66 15 3 15 C3 16.65 3 18.3 3 20 C4.32 20 5.64 20 7 20 C7 18.68 7 17.36 7 16 C7.66 15.67 8.32 15.34 9 15 C9.65555119 12.47266765 9.65555119 12.47266765 10 10 C9.34 10 8.68 10 8 10 C8 8.35 8 6.7 8 5 C6.02 5 4.04 5 2 5 C2 6.32 2 7.64 2 9 C0.68 8.67 -0.64 8.34 -2 8 C-2 7.01 -2 6.02 -2 5 C-1.34 5 -0.68 5 0 5 C0 3.35 0 1.7 0 0 Z " fill="#92C3F0" transform="translate(287,23)"/>
<path d="M0 0 C2.87858134 3.23713553 3.44547745 5.54636911 3.73046875 9.83203125 C3.81103516 10.96060547 3.89160156 12.08917969 3.97460938 13.25195312 C4.04486328 14.42693359 4.11511719 15.60191406 4.1875 16.8125 C4.3102832 18.55756836 4.3102832 18.55756836 4.43554688 20.33789062 C4.81232051 25.90084254 5.10581287 31.42447552 5 37 C4.195625 37.28875 3.39125 37.5775 2.5625 37.875 C-0.1326468 38.73262568 -0.1326468 38.73262568 -1 41 C-2.12550137 36.92215064 -2.22471618 32.9413442 -2.31640625 28.734375 C-2.33718735 27.94097717 -2.35796844 27.14757935 -2.37937927 26.33013916 C-2.44459973 23.80351156 -2.50363144 21.27678279 -2.5625 18.75 C-2.6057114 17.03384384 -2.64932653 15.31769778 -2.69335938 13.6015625 C-2.80025283 9.40114454 -2.90159729 5.20062511 -3 1 C-2.01 0.67 -1.02 0.34 0 0 Z " fill="#625D58" transform="translate(44,24)"/>
<path d="M0 0 C3.3 0 6.6 0 10 0 C10 10.23 10 20.46 10 31 C11.65 31 13.3 31 15 31 C15.85856655 34.4342662 15.97591583 36.61682513 15 40 C8.11422188 41.01593448 1.90188971 40.83854735 -5 40 C-5 37.03 -5 34.06 -5 31 C-3.35 31 -1.7 31 0 31 C-0.185625 29.7625 -0.37125 28.525 -0.5625 27.25 C-0.94711223 24.23720423 -1.0874594 21.89989173 0 19 C-1.32 19 -2.64 19 -4 19 C-4 16.03 -4 13.06 -4 10 C-3.01 9.67 -2.02 9.34 -1 9 C-0.67 6.03 -0.34 3.06 0 0 Z M-3 11 C-3 13.31 -3 15.62 -3 18 C-1.68 18 -0.36 18 1 18 C1 22.62 1 27.24 1 32 C-0.65 32 -2.3 32 -4 32 C-4 34.31 -4 36.62 -4 39 C1.94 39 7.88 39 14 39 C14 36.69 14 34.38 14 32 C12.35 32 10.7 32 9 32 C9 25.07 9 18.14 9 11 C5.04 11 1.08 11 -3 11 Z " fill="#171819" transform="translate(339,11)"/>
<path d="M0 0 C4.95 0 9.9 0 15 0 C15 1.65 15 3.3 15 5 C15.99 5.33 16.98 5.66 18 6 C18 9.63 18 13.26 18 17 C16.02 16.67 14.04 16.34 12 16 C11.67 14.68 11.34 13.36 11 12 C8.36 11.67 5.72 11.34 3 11 C3 9.35 3 7.7 3 6 C4.65 6 6.3 6 8 6 C7.67 4.35 7.34 2.7 7 1 C5.02 1 3.04 1 1 1 C1 2.65 1 4.3 1 6 C0.01 6 -0.98 6 -2 6 C-2 7.65 -2 9.3 -2 11 C-2.66 11 -3.32 11 -4 11 C-4 12.65 -4 14.3 -4 16 C-4.66 16.33 -5.32 16.66 -6 17 C-6 14.69 -6 12.38 -6 10 C-5.34 10 -4.68 10 -4 10 C-4 8.68 -4 7.36 -4 6 C-4.66 5.67 -5.32 5.34 -6 5 C-4.02 5 -2.04 5 0 5 C0 3.35 0 1.7 0 0 Z " fill="#6FACF8" transform="translate(390,22)"/>
<path d="M0 0 C0.33 0 0.66 0 1 0 C1.43543817 4.31848119 1.86224188 8.63771173 2.28173828 12.95776367 C2.4249896 14.42120246 2.57042555 15.88442938 2.71826172 17.34741211 C3.65116917 26.59715779 4.21797589 35.68859474 4 45 C-3.98712771 46.09352789 -11.88316128 46.18350281 -19.9375 46.1875 C-21.27669459 46.19966418 -22.61588735 46.21203251 -23.95507812 46.22460938 C-25.21642578 46.22654297 -26.47777344 46.22847656 -27.77734375 46.23046875 C-29.49812134 46.23663208 -29.49812134 46.23663208 -31.25366211 46.24291992 C-34 46 -34 46 -36 44 C-31.91806133 43.48816954 -27.83427904 42.99277714 -23.75 42.5 C-22.61046875 42.35691406 -21.4709375 42.21382812 -20.296875 42.06640625 C-12.82435065 41.17479823 -5.52360955 40.81474012 2 41 C1.93941406 40.36199463 1.87882812 39.72398926 1.81640625 39.06665039 C0.59713871 26.00993638 -0.32076287 13.11563738 0 0 Z " fill="#E8E5E0" transform="translate(96,15)"/>
<path d="M0 0 C4.62 0 9.24 0 14 0 C14 1.65 14 3.3 14 5 C14.99 5 15.98 5 17 5 C17 6.65 17 8.3 17 10 C16.67 8.68 16.34 7.36 16 6 C15.01 6 14.02 6 13 6 C13 4.35 13 2.7 13 1 C9.04 1 5.08 1 1 1 C1 2.65 1 4.3 1 6 C3.97 6 6.94 6 10 6 C10.33 7.65 10.66 9.3 11 11 C9.68 11 8.36 11 7 11 C7.27617533 12.94074861 7.27617533 12.94074861 8 15 C8.99 15.66 9.98 16.32 11 17 C10.67 18.32 10.34 19.64 10 21 C6.6875 21.1875 6.6875 21.1875 3 21 C2.01 20.01 1.02 19.02 0 18 C0 20.97 0 23.94 0 27 C3.63 27 7.26 27 11 27 C11 25.35 11 23.7 11 22 C11.33 22 11.66 22 12 22 C12.33 23.98 12.66 25.96 13 28 C8.38 28 3.76 28 -1 28 C-1 26.35 -1 24.7 -1 23 C-1.99 22.67 -2.98 22.34 -4 22 C-4 20.02 -4 18.04 -4 16 C-3.01 16 -2.02 16 -1 16 C-1 14.02 -1 12.04 -1 10 C2.3 10 5.6 10 9 10 C9 9.01 9 8.02 9 7 C6.03 7 3.06 7 0 7 C0 4.69 0 2.38 0 0 Z " fill="#8AB5BF" transform="translate(206,22)"/>
<path d="M0 0 C3.63 0 7.26 0 11 0 C11 1.32 11 2.64 11 4 C11.99 4 12.98 4 14 4 C14 11.26 14 18.52 14 26 C12.02 26 10.04 26 8 26 C8 19.07 8 12.14 8 5 C5.36 5 2.72 5 0 5 C0 3.35 0 1.7 0 0 Z " fill="#ACD3FC" transform="translate(185,23)"/>
<path d="M0 0 C3.96 0 7.92 0 12 0 C12 1.65 12 3.3 12 5 C13.32 5 14.64 5 16 5 C16.33 6.98 16.66 8.96 17 11 C15.02 11 13.04 11 11 11 C11 12.65 11 14.3 11 16 C10.67 14.68 10.34 13.36 10 12 C9.34 12 8.68 12 8 12 C8 10.35 8 8.7 8 7 C6.68 7 5.36 7 4 7 C4 8.65 4 10.3 4 12 C3.34 12 2.68 12 2 12 C1.67 13.32 1.34 14.64 1 16 C1 14.35 1 12.7 1 11 C-0.98 11 -2.96 11 -5 11 C-4.34 10.67 -3.68 10.34 -3 10 C-3 8.35 -3 6.7 -3 5 C-2.01 5 -1.02 5 0 5 C0 3.35 0 1.7 0 0 Z " fill="#AAD1FD" transform="translate(260,22)"/>
<path d="M0 0 C4.95 0 9.9 0 15 0 C15 1.65 15 3.3 15 5 C15.99 5 16.98 5 18 5 C18 8.96 18 12.92 18 17 C16.22625 16.9175 14.4525 16.835 12.625 16.75 C11.12839844 16.68039063 11.12839844 16.68039063 9.6015625 16.609375 C8.74304688 16.40828125 7.88453125 16.2071875 7 16 C5.7734375 14.015625 5.7734375 14.015625 5 12 C4.34 11.67 3.68 11.34 3 11 C3 9.35 3 7.7 3 6 C5.64 6 8.28 6 11 6 C11 6.66 11 7.32 11 8 C11.66 7.67 12.32 7.34 13 7 C13.33 5.02 13.66 3.04 14 1 C9.71 1 5.42 1 1 1 C1 2.65 1 4.3 1 6 C0.01 6 -0.98 6 -2 6 C-2 7.65 -2 9.3 -2 11 C-2.66 10.67 -3.32 10.34 -4 10 C-3.67 8.35 -3.34 6.7 -3 5 C-2.01 5 -1.02 5 0 5 C0 3.35 0 1.7 0 0 Z " fill="#68A7D7" transform="translate(156,22)"/>
<path d="M0 0 C2.97 0 5.94 0 9 0 C9.95024979 3.69541586 9.95024979 6.30458414 9 10 C10.65 10 12.3 10 14 10 C14 10.33 14 10.66 14 11 C12.02 11 10.04 11 8 11 C8 7.7 8 4.4 8 1 C5.69 1 3.38 1 1 1 C1 4.3 1 7.6 1 11 C-0.65 11 -2.3 11 -4 11 C-4 13.31 -4 15.62 -4 18 C-2.35 18 -0.7 18 1 18 C1 23.28 1 28.56 1 34 C1.66 34 2.32 34 3 34 C3 35.65 3 37.3 3 39 C7.29 39 11.58 39 16 39 C16 36.69 16 34.38 16 32 C13.36 32 10.72 32 8 32 C8 27.38 8 22.76 8 18 C10.64 18 13.28 18 16 18 C15.67 15.36 15.34 12.72 15 10 C15.66 10 16.32 10 17 10 C17 12.97 17 15.94 17 19 C15.02 19.66 13.04 20.32 11 21 C11 23.97 11 26.94 11 30 C12.98 30.33 14.96 30.66 17 31 C18.125 37.75 18.125 37.75 17 40 C12.05 40 7.1 40 2 40 C2 38.35 2 36.7 2 35 C1.34 35 0.68 35 0 35 C-0.33 29.72 -0.66 24.44 -1 19 C-2.65 19 -4.3 19 -6 19 C-6 16.03 -6 13.06 -6 10 C-4.02 10 -2.04 10 0 10 C0 6.7 0 3.4 0 0 Z " fill="#242A2C" transform="translate(233,11)"/>
<path d="M0 0 C5.94 0 11.88 0 18 0 C18 0.33 18 0.66 18 1 C15.69 1 13.38 1 11 1 C11 2.98 11 4.96 11 7 C10.01 7.495 10.01 7.495 9 8 C8.67 8.99 8.34 9.98 8 11 C7.01 11 6.02 11 5 11 C5 9.68 5 8.36 5 7 C5.66 7 6.32 7 7 7 C7 5.35 7 3.7 7 2 C5.35 2 3.7 2 2 2 C2 3.65 2 5.3 2 7 C1.01 7 0.02 7 -1 7 C-1 8.65 -1 10.3 -1 12 C-1.66 12 -2.32 12 -3 12 C-3 13.65 -3 15.3 -3 17 C-2.34 17 -1.68 17 -1 17 C-0.95101563 17.85464844 -0.90203125 18.70929687 -0.8515625 19.58984375 C-0.77679688 20.69457031 -0.70203125 21.79929687 -0.625 22.9375 C-0.52058594 24.59072266 -0.52058594 24.59072266 -0.4140625 26.27734375 C-0.27742188 27.17582031 -0.14078125 28.07429688 0 29 C0.66 29.33 1.32 29.66 2 30 C1.67 32.31 1.34 34.62 1 37 C2.32 37.66 3.64 38.32 5 39 C2.69 39 0.38 39 -2 39 C-2 32.07 -2 25.14 -2 18 C-3.32 18.33 -4.64 18.66 -6 19 C-6 16.36 -6 13.72 -6 11 C-5.01 10.67 -4.02 10.34 -3 10 C-3 8.35 -3 6.7 -3 5 C-2.01 5 -1.02 5 0 5 C0 3.35 0 1.7 0 0 Z " fill="#88AFBE" transform="translate(311,11)"/>
<path d="M0 0 C3.96 0 7.92 0 12 0 C12 6.93 12 13.86 12 21 C11.67 21 11.34 21 11 21 C10.67 18.36 10.34 15.72 10 13 C9.34 13 8.68 13 8 13 C7.67 13.99 7.34 14.98 7 16 C6.67 16 6.34 16 6 16 C5.67 17.65 5.34 19.3 5 21 C4.67 21 4.34 21 4 21 C4 16.38 4 11.76 4 7 C2.68 7 1.36 7 0 7 C0 4.69 0 2.38 0 0 Z " fill="#87B4D1" transform="translate(336,22)"/>
<path d="M0 0 C6.93 0 13.86 0 21 0 C21.33 1.32 21.66 2.64 22 4 C22.66 4.66 23.32 5.32 24 6 C22.68 6 21.36 6 20 6 C20 4.68 20 3.36 20 2 C16.37 2 12.74 2 9 2 C9 5.3 9 8.6 9 12 C8.34 12 7.68 12 7 12 C7 13.32 7 14.64 7 16 C5.0625 16.5625 5.0625 16.5625 3 17 C2 16 2 16 1.90234375 13.93359375 C1.91974609 12.69802734 1.91974609 12.69802734 1.9375 11.4375 C1.94652344 10.61121094 1.95554688 9.78492188 1.96484375 8.93359375 C1.97644531 8.29550781 1.98804688 7.65742188 2 7 C3.32 7 4.64 7 6 7 C6 5.35 6 3.7 6 2 C4.35 2 2.7 2 1 2 C1 10.91 1 19.82 1 29 C0.67 29 0.34 29 0 29 C0 21.41 0 13.82 0 6 C-0.66 5.67 -1.32 5.34 -2 5 C-1.34 3.35 -0.68 1.7 0 0 Z " fill="#5D7B8D" transform="translate(176,21)"/>
<path d="M0 0 C2.31 0 4.62 0 7 0 C7 3.3 7 6.6 7 10 C8.98 10 10.96 10 13 10 C13.33 9.34 13.66 8.68 14 8 C15.4783226 10.95664519 15.06032783 13.74229737 15 17 C12.36 17 9.72 17 7 17 C7 21.62 7 26.24 7 31 C9.64 31 12.28 31 15 31 C15 33.31 15 35.62 15 38 C10.71 38 6.42 38 2 38 C2 36.35 2 34.7 2 33 C1.34 33 0.68 33 0 33 C0 27.72 0 22.44 0 17 C-1.65 17 -3.3 17 -5 17 C-5 14.69 -5 12.38 -5 10 C-3.35 10 -1.7 10 0 10 C0 6.7 0 3.4 0 0 Z M1 1 C1 4.3 1 7.6 1 11 C-0.65 11 -2.3 11 -4 11 C-4 12.65 -4 14.3 -4 16 C-2.35 16 -0.7 16 1 16 C1 21.28 1 26.56 1 32 C1.66 32.33 2.32 32.66 3 33 C3 34.32 3 35.64 3 37 C5.97 37 8.94 37 12 37 C11.34 35.35 10.68 33.7 10 32 C8.68 32 7.36 32 6 32 C6 26.72 6 21.44 6 16 C8.64 16 11.28 16 14 16 C14 14.35 14 12.7 14 11 C11.36 11 8.72 11 6 11 C6 7.7 6 4.4 6 1 C4.35 1 2.7 1 1 1 Z " fill="#91BDD0" transform="translate(234,12)"/>
<path d="M0 0 C4.29 0 8.58 0 13 0 C13 1.98 13 3.96 13 6 C12.01 6.33 11.02 6.66 10 7 C10 6.34 10 5.68 10 5 C7.36 5 4.72 5 2 5 C2 6.65 2 8.3 2 10 C2.99 10.33 3.98 10.66 5 11 C5.6875 13.0625 5.6875 13.0625 6 15 C4.35 15 2.7 15 1 15 C0.67 15.66 0.34 16.32 0 17 C-0.33 16.34 -0.66 15.68 -1 15 C-2.32 15 -3.64 15 -5 15 C-5 13.35 -5 11.7 -5 10 C-4.34 10 -3.68 10 -3 10 C-3 8.35 -3 6.7 -3 5 C-2.01 5 -1.02 5 0 5 C0 3.35 0 1.7 0 0 Z " fill="#6AAEFC" transform="translate(157,23)"/>
<path d="M0 0 C0.99 0 1.98 0 3 0 C3 1.65 3 3.3 3 5 C4.65 5 6.3 5 8 5 C8 3.35 8 1.7 8 0 C12.62 0 17.24 0 22 0 C22 0.33 22 0.66 22 1 C17.71 1 13.42 1 9 1 C9 2.32 9 3.64 9 5 C12.63 5 16.26 5 20 5 C20 7.31 20 9.62 20 12 C15.05 12 10.1 12 5 12 C5 10.35 5 8.7 5 7 C3.68 6.67 2.36 6.34 1 6 C0.67 4.02 0.34 2.04 0 0 Z " fill="#9FCEF6" transform="translate(385,38)"/>
<path d="M0 0 C0.33 0.66 0.66 1.32 1 2 C1.66 2 2.32 2 3 2 C3 3.65 3 5.3 3 7 C3.66 7 4.32 7 5 7 C5 8.65 5 10.3 5 12 C-0.94 12 -6.88 12 -13 12 C-13.33 9.03 -13.66 6.06 -14 3 C-13.01 3 -12.02 3 -11 3 C-10.67 3.66 -10.34 4.32 -10 5 C-7.67843403 5.40729228 -5.3431213 5.74438677 -3 6 C-3 4.68 -3 3.36 -3 2 C-2.01 1.34 -1.02 0.68 0 0 Z " fill="#B7DFFA" transform="translate(219,37)"/>
<path d="M0 0 C0.33 7.59 0.66 15.18 1 23 C0.01 22.01 -0.98 21.02 -2 20 C-2.99 20 -3.98 20 -5 20 C-5.09796875 19.15695313 -5.1959375 18.31390625 -5.296875 17.4453125 C-5.52117188 15.80175781 -5.52117188 15.80175781 -5.75 14.125 C-5.88921875 13.03445312 -6.0284375 11.94390625 -6.171875 10.8203125 C-6.70935435 7.87221871 -6.70935435 7.87221871 -9.078125 6.6171875 C-10.02945313 6.31167969 -10.02945313 6.31167969 -11 6 C-11 5.01 -11 4.02 -11 3 C-6.97522285 -0.19614656 -5.49825929 0 0 0 Z " fill="#A29F9A" transform="translate(46,5)"/>
<path d="M0 0 C-3.38922261 2.25948174 -5.21288051 2.44149461 -9.22265625 2.8515625 C-10.4761084 2.98071045 -11.72956055 3.1098584 -13.02099609 3.24291992 C-14.36808851 3.37107661 -15.71525827 3.4984226 -17.0625 3.625 C-18.0731955 3.72405136 -18.0731955 3.72405136 -19.10430908 3.82510376 C-29.75276858 4.86340081 -40.30111921 5.39142247 -51 5 C-51 4.01 -51 3.02 -51 2 C-49.700625 2.020625 -48.40125 2.04125 -47.0625 2.0625 C-45.70834367 2.08399454 -44.35243917 2.07148199 -43 2 C-42.67 1.67 -42.34 1.34 -42 1 C-28.14768534 -0.80391879 -13.92885794 -0.09865705 0 0 Z " fill="#A9A39D" transform="translate(100,60)"/>
<path d="M0 0 C4.29 0 8.58 0 13 0 C13 1.65 13 3.3 13 5 C11.35 4.34 9.7 3.68 8 3 C8 3.66 8 4.32 8 5 C6.35 5 4.7 5 3 5 C3 6.65 3 8.3 3 10 C2.01 10 1.02 10 0 10 C0 11.98 0 13.96 0 16 C0.66 16 1.32 16 2 16 C1.67 16.66 1.34 17.32 1 18 C0.34 17.67 -0.32 17.34 -1 17 C-0.67 17.99 -0.34 18.98 0 20 C-0.99 20 -1.98 20 -3 20 C-3 18.35 -3 16.7 -3 15 C-3.99 15 -4.98 15 -6 15 C-6 13.35 -6 11.7 -6 10 C-5.01 10 -4.02 10 -3 10 C-3 8.35 -3 6.7 -3 5 C-2.01 5 -1.02 5 0 5 C0 3.35 0 1.7 0 0 Z " fill="#76B4FA" transform="translate(365,23)"/>
<path d="M0 0 C1.35404497 -0.02763357 2.70826555 -0.04667422 4.0625 -0.0625 C4.81660156 -0.07410156 5.57070312 -0.08570313 6.34765625 -0.09765625 C9.61124192 0.02250523 12.77521826 0.49871814 16 1 C18.38776806 24.58238484 18.38776806 24.58238484 18 36 C15.03 36 12.06 36 9 36 C9 35.67 9 35.34 9 35 C10.65 35 12.3 35 14 35 C14.30991153 19.39346721 14.30991153 19.39346721 12 4 C6.06 2.515 6.06 2.515 0 1 C0 0.67 0 0.34 0 0 Z " fill="#717171" transform="translate(77,16)"/>
<path d="M0 0 C3.91715725 0.11178894 7.83351228 0.241937 11.75 0.375 C12.84183594 0.4059375 13.93367188 0.436875 15.05859375 0.46875 C22.51324174 0.73341206 29.67565128 1.59045211 37 3 C37 3.99 37 4.98 37 6 C29.41794432 6.18611236 22.08635414 5.4646911 14.5625 4.5625 C13.37978516 4.42779297 12.19707031 4.29308594 10.97851562 4.15429688 C2.26321756 3.13160878 2.26321756 3.13160878 0 2 C0 1.34 0 0.68 0 0 Z " fill="#ECE8E0" transform="translate(59,8)"/>
<path d="M0 0 C0.99 0.33 1.98 0.66 3 1 C2.50274414 1.54205078 2.00548828 2.08410156 1.49316406 2.64257812 C-0.41010935 5.64748462 -0.21739914 7.20677599 0.109375 10.71875 C0.20476563 11.81574219 0.30015625 12.91273437 0.3984375 14.04296875 C0.51445313 15.18378906 0.63046875 16.32460938 0.75 17.5 C0.85054687 18.64082031 0.95109375 19.78164063 1.0546875 20.95703125 C1.62890152 27.54593441 1.62890152 27.54593441 3 34 C8.9172559 35.21825857 14.85751516 35.33647378 20.875 35.5625 C21.94492188 35.60568359 23.01484375 35.64886719 24.1171875 35.69335938 C26.74467754 35.79892817 29.37225422 35.90103791 32 36 C32 36.33 32 36.66 32 37 C7.72327044 38.86163522 7.72327044 38.86163522 0 35 C-3.40898682 24.77303955 -2.13857215 11.71624664 -2 1 C-1.34 0.67 -0.68 0.34 0 0 Z " fill="#A9A9A9" transform="translate(52,16)"/>
<path d="M0 0 C0.99 0 1.98 0 3 0 C3 1.65 3 3.3 3 5 C3.99 5 4.98 5 6 5 C6 3.35 6 1.7 6 0 C8.97 0 11.94 0 15 0 C15 1.65 15 3.3 15 5 C15.66 5 16.32 5 17 5 C17 6.65 17 8.3 17 10 C15.35 10 13.7 10 12 10 C12 8.35 12 6.7 12 5 C10.68 5 9.36 5 8 5 C8 6.65 8 8.3 8 10 C7.34 10 6.68 10 6 10 C5.67 10.99 5.34 11.98 5 13 C4.16209211 11.21046815 3.32980604 9.41830305 2.5 7.625 C1.80390625 6.12839844 1.80390625 6.12839844 1.09375 4.6015625 C0 2 0 2 0 0 Z " fill="#7DB8FE" transform="translate(129,23)"/>
<path d="M0 0 C-0.99 2.31 -1.98 4.62 -3 7 C-3.99 7 -4.98 7 -6 7 C-6 7.99 -6 8.98 -6 10 C-4.68 10 -3.36 10 -2 10 C-2 12.31 -2 14.62 -2 17 C-3.32 17 -4.64 17 -6 17 C-6 23.93 -6 30.86 -6 38 C-8.31 38 -10.62 38 -13 38 C-13 31.07 -13 24.14 -13 17 C-13.99 17 -14.98 17 -16 17 C-16 19.64 -16 22.28 -16 25 C-16.33 25 -16.66 25 -17 25 C-17 22.03 -17 19.06 -17 16 C-15.35 16 -13.7 16 -12 16 C-12 22.93 -12 29.86 -12 37 C-10.35 37 -8.7 37 -7 37 C-7 30.07 -7 23.14 -7 16 C-6.01 16 -5.02 16 -4 16 C-4 14.35 -4 12.7 -4 11 C-4.99 11 -5.98 11 -7 11 C-7 9.35 -7 7.7 -7 6 C-6.01 6 -5.02 6 -4 6 C-4 4.35 -4 2.7 -4 1 C-5.98 1 -7.96 1 -10 1 C-10 0.67 -10 0.34 -10 0 C-3.375 -1.125 -3.375 -1.125 0 0 Z " fill="#A3CFE1" transform="translate(332,12)"/>
<path d="M0 0 C1.32 0 2.64 0 4 0 C4 1.65 4 3.3 4 5 C7.3 4.34 10.6 3.68 14 3 C14 5.31 14 7.62 14 10 C13.34 10 12.68 10 12 10 C12 11.65 12 13.3 12 15 C11.01 14.67 10.02 14.34 9 14 C9 13.34 9 12.68 9 12 C7.68 11.67 6.36 11.34 5 11 C4.67 11.99 4.34 12.98 4 14 C2.68 14 1.36 14 0 14 C0 12.02 0 10.04 0 8 C-0.66 8 -1.32 8 -2 8 C-2 7.01 -2 6.02 -2 5 C-1.34 5 -0.68 5 0 5 C0 3.35 0 1.7 0 0 Z M1 1 C1 2.65 1 4.3 1 6 C0.01 6.495 0.01 6.495 -1 7 C-0.34 7 0.32 7 1 7 C1 8.98 1 10.96 1 13 C1.66 13 2.32 13 3 13 C3 11.02 3 9.04 3 7 C3.66 6.67 4.32 6.34 5 6 C4.34 6 3.68 6 3 6 C3 4.35 3 2.7 3 1 C2.34 1 1.68 1 1 1 Z " fill="#3C596E" transform="translate(264,29)"/>
<path d="M0 0 C5.61 0 11.22 0 17 0 C17.33 1.32 17.66 2.64 18 4 C18.66 4.33 19.32 4.66 20 5 C20 9.62 20 14.24 20 19 C16.37 19.33 12.74 19.66 9 20 C11.64 20.33 14.28 20.66 17 21 C17 23.97 17 26.94 17 30 C11.39 30 5.78 30 0 30 C0 29.67 0 29.34 0 29 C5.28 29 10.56 29 16 29 C16 26.69 16 24.38 16 22 C12.37 22 8.74 22 5 22 C5 20.68 5 19.36 5 18 C9.62 18 14.24 18 19 18 C18.87625 16.205625 18.7525 14.41125 18.625 12.5625 C18.55539062 11.55316406 18.48578125 10.54382813 18.4140625 9.50390625 C18.27742188 8.67761719 18.14078125 7.85132813 18 7 C17.34 6.67 16.68 6.34 16 6 C16 4.35 16 2.7 16 1 C11.05 1 6.1 1 1 1 C1 2.65 1 4.3 1 6 C-0.32 5.67 -1.64 5.34 -3 5 C-2.01 5 -1.02 5 0 5 C0 3.35 0 1.7 0 0 Z " fill="#131718" transform="translate(389,21)"/>
<path d="M0 0 C1.98 0.495 1.98 0.495 4 1 C4 4.63 4 8.26 4 12 C5.32 12 6.64 12 8 12 C8.66 13.65 9.32 15.3 10 17 C7.03 17 4.06 17 1 17 C1 15.68 1 14.36 1 13 C0.34 12.67 -0.32 12.34 -1 12 C-1.02698189 10.37509046 -1.04638757 8.75005367 -1.0625 7.125 C-1.07410156 6.22007813 -1.08570313 5.31515625 -1.09765625 4.3828125 C-1 2 -1 2 0 0 Z " fill="#9DCEFD" transform="translate(236,32)"/>
<path d="M0 0 C5.61 0 11.22 0 17 0 C17 1.65 17 3.3 17 5 C18.32 5.33 19.64 5.66 21 6 C20.34 8.31 19.68 10.62 19 13 C18.67 13 18.34 13 18 13 C18 11.02 18 9.04 18 7 C17.01 7 16.02 7 15 7 C15 5.35 15 3.7 15 2 C10.71 2 6.42 2 2 2 C2 3.65 2 5.3 2 7 C1.01 7 0.02 7 -1 7 C-1 8.65 -1 10.3 -1 12 C-1.99 12 -2.98 12 -4 12 C-4 13.98 -4 15.96 -4 18 C-4.33 18 -4.66 18 -5 18 C-5 15.36 -5 12.72 -5 10 C-4.34 10 -3.68 10 -3 10 C-3 8.35 -3 6.7 -3 5 C-2.01 5 -1.02 5 0 5 C0 3.35 0 1.7 0 0 Z " fill="#4B6368" transform="translate(363,21)"/>
<path d="M0 0 C0 1.32 0 2.64 0 4 C-4.09338652 4.04939115 -8.18665798 4.08571501 -12.28027344 4.10986328 C-13.67320781 4.11992877 -15.06612102 4.13358234 -16.45898438 4.15087891 C-18.4595436 4.1751022 -20.46025615 4.18540814 -22.4609375 4.1953125 C-23.66540527 4.20578613 -24.86987305 4.21625977 -26.11083984 4.22705078 C-29 4 -29 4 -31 2 C-20.56612375 0.32098543 -10.554717 -0.24965165 0 0 Z " fill="#EFE9E2" transform="translate(91,57)"/>
<path d="M0 0 C4.95 0 9.9 0 15 0 C15 1.65 15 3.3 15 5 C15.99 5.33 16.98 5.66 18 6 C18 9.63 18 13.26 18 17 C16.02 16.67 14.04 16.34 12 16 C12 15.01 12 14.02 12 13 C12.99 12.67 13.98 12.34 15 12 C15.33 10.02 15.66 8.04 16 6 C15.34 6 14.68 6 14 6 C14 4.35 14 2.7 14 1 C9.71 1 5.42 1 1 1 C1 2.65 1 4.3 1 6 C0.01 6 -0.98 6 -2 6 C-2 7.65 -2 9.3 -2 11 C-2.66 11 -3.32 11 -4 11 C-4 12.65 -4 14.3 -4 16 C-4.66 16.33 -5.32 16.66 -6 17 C-6 14.69 -6 12.38 -6 10 C-5.34 10 -4.68 10 -4 10 C-4 8.68 -4 7.36 -4 6 C-4.66 5.67 -5.32 5.34 -6 5 C-4.02 5 -2.04 5 0 5 C0 3.35 0 1.7 0 0 Z " fill="#7AA7C0" transform="translate(390,22)"/>
<path d="M0 0 C3.96 0 7.92 0 12 0 C12 1.65 12 3.3 12 5 C13.32 5 14.64 5 16 5 C16.33 6.98 16.66 8.96 17 11 C15.02 11 13.04 11 11 11 C11 12.65 11 14.3 11 16 C10.67 14.68 10.34 13.36 10 12 C9.34 12 8.68 12 8 12 C8 10.35 8 8.7 8 7 C6.68 7 5.36 7 4 7 C4 8.65 4 10.3 4 12 C3.67 12 3.34 12 3 12 C3 10.02 3 8.04 3 6 C5.64 6 8.28 6 11 6 C11 4.35 11 2.7 11 1 C7.7 1 4.4 1 1 1 C1 2.65 1 4.3 1 6 C-0.32 5.67 -1.64 5.34 -3 5 C-2.01 5 -1.02 5 0 5 C0 3.35 0 1.7 0 0 Z " fill="#8FBED6" transform="translate(260,22)"/>
<path d="M0 0 C2 2 2 2 2 5 C2.66 5 3.32 5 4 5 C4.33 6.65 4.66 8.3 5 10 C5.99 10.33 6.98 10.66 8 11 C8 11.99 8 12.98 8 14 C4.04 14 0.08 14 -4 14 C-4 12.02 -4 10.04 -4 8 C-2.68 8 -1.36 8 0 8 C0 5.36 0 2.72 0 0 Z " fill="#ADD7FD" transform="translate(129,35)"/>
<path d="M0 0 C0.66 0 1.32 0 2 0 C2.33 1.32 2.66 2.64 3 4 C5.64 4 8.28 4 11 4 C11 2.68 11 1.36 11 0 C12.32 0.66 13.64 1.32 15 2 C15 5.63 15 9.26 15 13 C14.67 13 14.34 13 14 13 C14 11.35 14 9.7 14 8 C9.38 8.66 4.76 9.32 0 10 C0 6.7 0 3.4 0 0 Z " fill="#9A9AB6" transform="translate(65,24)"/>
<path d="M0 0 C3.3 0 6.6 0 10 0 C10 1.65 10 3.3 10 5 C10.99 5 11.98 5 13 5 C13 6.32 13 7.64 13 9 C11.35 9 9.7 9 8 9 C8 7.68 8 6.36 8 5 C6.02 5 4.04 5 2 5 C2 6.32 2 7.64 2 9 C0.68 8.67 -0.64 8.34 -2 8 C-2 7.01 -2 6.02 -2 5 C-1.34 5 -0.68 5 0 5 C0 3.35 0 1.7 0 0 Z " fill="#B0D6FE" transform="translate(287,23)"/>
<path d="M0 0 C2.31 0 4.62 0 7 0 C7.103125 0.61875 7.20625 1.2375 7.3125 1.875 C7.87525373 4.36526484 7.87525373 4.36526484 11 6 C10.67 7.32 10.34 8.64 10 10 C6.6875 10.3125 6.6875 10.3125 3 10 C0.65502127 7.35244337 0.04708671 5.7063007 -0.1875 2.1875 C-0.125625 1.465625 -0.06375 0.74375 0 0 Z " fill="#9FCBF1" transform="translate(206,33)"/>
<path d="M0 0 C1.65 0 3.3 0 5 0 C5.05418326 2.08304538 5.09287551 4.16649768 5.125 6.25 C5.14820313 7.41015625 5.17140625 8.5703125 5.1953125 9.765625 C5.0103949 12.82786046 4.60823023 14.44202751 3 17 C2.34 17 1.68 17 1 17 C-0.53266582 13.93466836 -0.10276471 10.73245728 -0.0625 7.375 C-0.05798828 6.66859375 -0.05347656 5.9621875 -0.04882812 5.234375 C-0.03703875 3.48954725 -0.01910324 1.744763 0 0 Z " fill="#98CAFD" transform="translate(193,30)"/>
<path d="M0 0 C9.72395343 0.632723 19.34455651 1.72334958 29 3 C29 3.33 29 3.66 29 4 C23.54230189 4.11138159 18.38490641 3.91657981 13 3 C13 3.66 13 4.32 13 5 C8.83861737 5.08159574 5.0527516 4.98248524 1 4 C1 6.31 1 8.62 1 11 C0.67 11 0.34 11 0 11 C0 7.37 0 3.74 0 0 Z " fill="#E0D9D1" transform="translate(46,5)"/>
<path d="M0 0 C1.65 0 3.3 0 5 0 C5.12375 0.639375 5.2475 1.27875 5.375 1.9375 C5.684375 2.9584375 5.684375 2.9584375 6 4 C6.66 4.33 7.32 4.66 8 5 C7.67 6.98 7.34 8.96 7 11 C7.66 11 8.32 11 9 11 C9 12.65 9 14.3 9 16 C7.68 16 6.36 16 5 16 C4.87625 15.195625 4.7525 14.39125 4.625 13.5625 C4.41875 12.716875 4.2125 11.87125 4 11 C3.34 10.67 2.68 10.34 2 10 C2 8.35 2 6.7 2 5 C1.34 5 0.68 5 0 5 C0 3.35 0 1.7 0 0 Z " fill="#8FC2FD" transform="translate(256,33)"/>
<path d="M0 0 C3.96 0 7.92 0 12 0 C12 1.65 12 3.3 12 5 C12.99 5 13.98 5 15 5 C15 5.99 15 6.98 15 8 C13.35 8 11.7 8 10 8 C10 7.01 10 6.02 10 5 C6.7 5 3.4 5 0 5 C0 3.35 0 1.7 0 0 Z " fill="#BCDAFC" transform="translate(207,23)"/>
<path d="M0 0 C6.6 0 13.2 0 20 0 C20 1.65 20 3.3 20 5 C20.66 5 21.32 5 22 5 C22 7.31 22 9.62 22 12 C19.69 12 17.38 12 15 12 C15 10.35 15 8.7 15 7 C14.34 7 13.68 7 13 7 C13 8.65 13 10.3 13 12 C12.34 12 11.68 12 11 12 C11 13.65 11 15.3 11 17 C10.67 17 10.34 17 10 17 C10 15.02 10 13.04 10 11 C10.66 11 11.32 11 12 11 C12 9.35 12 7.7 12 6 C13.32 6 14.64 6 16 6 C16 7.65 16 9.3 16 11 C17.65 11 19.3 11 21 11 C21 9.35 21 7.7 21 6 C20.34 6 19.68 6 19 6 C19 4.35 19 2.7 19 1 C16.03 1 13.06 1 10 1 C10 2.65 10 4.3 10 6 C9.01 6 8.02 6 7 6 C7 4.35 7 2.7 7 1 C4.69 1 2.38 1 0 1 C0 0.67 0 0.34 0 0 Z " fill="#8FBFD4" transform="translate(125,22)"/>
<path d="M0 0 C19.305 0.495 19.305 0.495 39 1 C39 1.33 39 1.66 39 2 C17.57517791 4.56166351 17.57517791 4.56166351 7 3 C6.24847656 2.90203125 5.49695312 2.8040625 4.72265625 2.703125 C3.14532139 2.49073139 1.57180358 2.25005966 0 2 C0 1.34 0 0.68 0 0 Z " fill="#9A9999" transform="translate(56,54)"/>
<path d="M0 0 C2.31 0 4.62 0 7 0 C6.67 1.98 6.34 3.96 6 6 C5.34 6 4.68 6 4 6 C4 7.65 4 9.3 4 11 C2.35 11 0.7 11 -1 11 C-1 9.35 -1 7.7 -1 6 C-2.65 6 -4.3 6 -6 6 C-6 5.67 -6 5.34 -6 5 C-4.02 5 -2.04 5 0 5 C0 3.35 0 1.7 0 0 Z " fill="#9BCDF5" transform="translate(374,38)"/>
<path d="M0 0 C1.32 0 2.64 0 4 0 C4 1.65 4 3.3 4 5 C4.66 5 5.32 5 6 5 C6 5.99 6 6.98 6 8 C5.34 8 4.68 8 4 8 C4 9.98 4 11.96 4 14 C2.68 14 1.36 14 0 14 C0 12.02 0 10.04 0 8 C-0.66 8 -1.32 8 -2 8 C-2 7.01 -2 6.02 -2 5 C-1.34 5 -0.68 5 0 5 C0 3.35 0 1.7 0 0 Z " fill="#222424" transform="translate(290,29)"/>
<path d="M0 0 C1.32 0.33 2.64 0.66 4 1 C4 4.96 4 8.92 4 13 C1.36 13 -1.28 13 -4 13 C-3.01 12.67 -2.02 12.34 -1 12 C-1.14308594 10.95199219 -1.14308594 10.95199219 -1.2890625 9.8828125 C-1.39992188 8.97273438 -1.51078125 8.06265625 -1.625 7.125 C-1.74101562 6.22007813 -1.85703125 5.31515625 -1.9765625 4.3828125 C-1.98429687 3.59648438 -1.99203125 2.81015625 -2 2 C-1.34 1.34 -0.68 0.68 0 0 Z " fill="#4A4643" transform="translate(30,34)"/>
<path d="M0 0 C0.33 0 0.66 0 1 0 C1 1.65 1 3.3 1 5 C2.32 5 3.64 5 5 5 C5.33 3.68 5.66 2.36 6 1 C8.09350689 4.4019487 8.17942163 7.05272412 8 11 C4.37 11 0.74 11 -3 11 C-3 9.35 -3 7.7 -3 6 C-2.01 6 -1.02 6 0 6 C0 4.02 0 2.04 0 0 Z " fill="#9CCAFA" transform="translate(289,38)"/>
<path d="M0 0 C6.27 0.66 12.54 1.32 19 2 C19.33 2.99 19.66 3.98 20 5 C12.34393782 5.19355213 5.33741969 5.3479743 -2 3 C-1.34 2.01 -0.68 1.02 0 0 Z " fill="#CCCCCC" transform="translate(59,10)"/>
<path d="M0 0 C2.475 0.99 2.475 0.99 5 2 C5 3.32 5 4.64 5 6 C6.32 6 7.64 6 9 6 C9 8.31 9 10.62 9 13 C3.72 13 -1.56 13 -7 13 C-7 10.69 -7 8.38 -7 6 C-6.67 6 -6.34 6 -6 6 C-6 7.98 -6 9.96 -6 12 C-2.04 12 1.92 12 6 12 C5.67 11.01 5.34 10.02 5 9 C4.34 8.67 3.68 8.34 3 8 C2.375 5.4375 2.375 5.4375 2 3 C1.34 3 0.68 3 0 3 C0 2.01 0 1.02 0 0 Z " fill="#92BED8" transform="translate(131,37)"/>
<path d="M0 0 C2.64 0 5.28 0 8 0 C8 2.31 8 4.62 8 7 C5.36 7 2.72 7 0 7 C-0.33 7.66 -0.66 8.32 -1 9 C-2.25541557 5.23375329 -1.37061958 3.62811066 0 0 Z " fill="#688890" transform="translate(340,12)"/>
<path d="M0 0 C5.94 0 11.88 0 18 0 C18 0.33 18 0.66 18 1 C15.69 1 13.38 1 11 1 C11 2.98 11 4.96 11 7 C10.01 7.495 10.01 7.495 9 8 C8.67 8.99 8.34 9.98 8 11 C7.01 11 6.02 11 5 11 C5 9.68 5 8.36 5 7 C5.99 7 6.98 7 8 7 C8 5.02 8 3.04 8 1 C5.69 1 3.38 1 1 1 C1 2.65 1 4.3 1 6 C0.01 6 -0.98 6 -2 6 C-2 7.65 -2 9.3 -2 11 C-2.99 10.67 -3.98 10.34 -5 10 C-4.34 10 -3.68 10 -3 10 C-3 8.35 -3 6.7 -3 5 C-2.01 5 -1.02 5 0 5 C0 3.35 0 1.7 0 0 Z " fill="#232F32" transform="translate(311,11)"/>
<path d="M0 0 C0.66 0.33 1.32 0.66 2 1 C1.67 2.32 1.34 3.64 1 5 C1.66 5 2.32 5 3 5 C3 7.97 3 10.94 3 14 C2.34 14 1.68 14 1 14 C1.185625 14.61875 1.37125 15.2375 1.5625 15.875 C2 18 2 18 1 20 C0.01 20 -0.98 20 -2 20 C-2 21.65 -2 23.3 -2 25 C-6.95 25 -11.9 25 -17 25 C-17 24.67 -17 24.34 -17 24 C-12.71 24 -8.42 24 -4 24 C-4 22.35 -4 20.7 -4 19 C-3.01 18.67 -2.02 18.34 -1 18 C-0.67 16.35 -0.34 14.7 0 13 C0.66 13 1.32 13 2 13 C2 10.69 2 8.38 2 6 C1.01 6 0.02 6 -1 6 C-1.042721 4.33388095 -1.04063832 2.66617115 -1 1 C-0.67 0.67 -0.34 0.34 0 0 Z " fill="#181B1C" transform="translate(302,26)"/>
<path d="M0 0 C2.66666667 0.66666667 5.33333333 1.33333333 8 2 C8 3.98 8 5.96 8 8 C5.69 8 3.38 8 1 8 C1 6.35 1 4.7 1 3 C-0.65 3 -2.3 3 -4 3 C-4 4.65 -4 6.3 -4 8 C-4.33 8 -4.66 8 -5 8 C-5 6.02 -5 4.04 -5 2 C-3.35 2 -1.7 2 0 2 C0 1.34 0 0.68 0 0 Z " fill="#70ADE2" transform="translate(373,26)"/>
<path d="M0 0 C2.31 0.33 4.62 0.66 7 1 C7 2.32 7 3.64 7 5 C6.34 5 5.68 5 5 5 C5.33 6.98 5.66 8.96 6 11 C4.68 11.33 3.36 11.66 2 12 C2 10.35 2 8.7 2 7 C1.34 7 0.68 7 0 7 C0 4.69 0 2.38 0 0 Z " fill="#7DB0DF" transform="translate(280,32)"/>
<path d="M0 0 C0.33 0 0.66 0 1 0 C1.33 5.94 1.66 11.88 2 18 C1.01 17.01 0.02 16.02 -1 15 C-1.99 15 -2.98 15 -4 15 C-4.29296875 8.9453125 -4.29296875 8.9453125 -4 7 C-3.01 6.34 -2.02 5.68 -1 5 C-0.27034634 2.43717258 -0.27034634 2.43717258 0 0 Z " fill="#8A8682" transform="translate(45,10)"/>
<path d="M0 0 C0.66 0 1.32 0 2 0 C3.60725635 3.21451269 3.05748185 6.43612536 3 10 C1.02 10.33 -0.96 10.66 -3 11 C-3 7.7 -3 4.4 -3 1 C-2.01 1.495 -2.01 1.495 -1 2 C-0.67 1.34 -0.34 0.68 0 0 Z " fill="#9BCCFB" transform="translate(344,35)"/>
<path d="M0 0 C0.99 0 1.98 0 3 0 C3 1.65 3 3.3 3 5 C3.99 5 4.98 5 6 5 C6 3.35 6 1.7 6 0 C6.66 0 7.32 0 8 0 C8.12375 0.639375 8.2475 1.27875 8.375 1.9375 C8.58125 2.618125 8.7875 3.29875 9 4 C9.66 4.33 10.32 4.66 11 5 C10.01 5 9.02 5 8 5 C8 6.65 8 8.3 8 10 C7.34 10 6.68 10 6 10 C5.67 10.99 5.34 11.98 5 13 C4.16209211 11.21046815 3.32980604 9.41830305 2.5 7.625 C1.80390625 6.12839844 1.80390625 6.12839844 1.09375 4.6015625 C0 2 0 2 0 0 Z " fill="#71B0F8" transform="translate(129,23)"/>
<path d="M0 0 C2.97 0 5.94 0 9 0 C9 1.98 9 3.96 9 6 C6.03 6 3.06 6 0 6 C0 4.02 0 2.04 0 0 Z " fill="#B1D5F8" transform="translate(337,23)"/>
<path d="M0 0 C16.8929385 0.77904328 16.8929385 0.77904328 24 3 C24 3.33 24 3.66 24 4 C15.72984476 4.2144997 8.03764031 4.07422976 0 2 C0 1.34 0 0.68 0 0 Z " fill="#F8F7F5" transform="translate(59,8)"/>
<path d="M0 0 C0.33 0 0.66 0 1 0 C1 1.65 1 3.3 1 5 C1.99 5 2.98 5 4 5 C4 7.31 4 9.62 4 12 C4.66 12 5.32 12 6 12 C6 13.98 6 15.96 6 18 C6.99 18 7.98 18 9 18 C9 19.65 9 21.3 9 23 C8.34 22.67 7.68 22.34 7 22 C7.33 21.01 7.66 20.02 8 19 C6.68 18.67 5.36 18.34 4 18 C4 16.68 4 15.36 4 14 C2.35 13.67 0.7 13.34 -1 13 C-0.01 12.67 0.98 12.34 2 12 C2 10.68 2 9.36 2 8 C1.34 8 0.68 8 0 8 C0 5.36 0 2.72 0 0 Z " fill="#4D595C" transform="translate(147,27)"/>
<path d="M0 0 C0 1.32 0 2.64 0 4 C1.65 4 3.3 4 5 4 C5 4.33 5 4.66 5 5 C2.16640156 5.05449228 -0.66612485 5.09390733 -3.5 5.125 C-4.29148437 5.14175781 -5.08296875 5.15851563 -5.8984375 5.17578125 C-11.27998079 5.21989226 -15.82999927 4.50594058 -21 3 C-21 2.67 -21 2.34 -21 2 C-16.71026894 1.92850448 -13.14933362 1.96266659 -9 3 C-5.59053943 2.48341506 -3.29804598 0 0 0 Z " fill="#2F2C29" transform="translate(49,61)"/>
<path d="M0 0 C0.33 0.66 0.66 1.32 1 2 C1.66 2 2.32 2 3 2 C4.49821059 5.37097383 5 7.20442119 5 11 C3.35 11 1.7 11 0 11 C0 9.35 0 7.7 0 6 C-0.66 6 -1.32 6 -2 6 C-2 4.35 -2 2.7 -2 1 C-1.34 0.67 -0.68 0.34 0 0 Z " fill="#7BB5F8" transform="translate(388,32)"/>
<path d="M0 0 C0.66 0 1.32 0 2 0 C2 2.31 2 4.62 2 7 C3.32 7 4.64 7 6 7 C6 11.62 6 16.24 6 21 C4.35 21 2.7 21 1 21 C1.99 20.67 2.98 20.34 4 20 C3.91306859 18.20741442 3.80489496 16.41584856 3.6875 14.625 C3.62949219 13.62726562 3.57148437 12.62953125 3.51171875 11.6015625 C3.34285156 10.74304687 3.17398438 9.88453125 3 9 C2.01 8.34 1.02 7.68 0 7 C-0.1875 3.375 -0.1875 3.375 0 0 Z " fill="#4F5E61" transform="translate(123,22)"/>
<path d="M0 0 C0.99 0 1.98 0 3 0 C3 1.65 3 3.3 3 5 C4.65 5 6.3 5 8 5 C7.34 6.98 6.68 8.96 6 11 C10.29 11 14.58 11 19 11 C19 9.02 19 7.04 19 5 C19.33 5 19.66 5 20 5 C20 7.31 20 9.62 20 12 C15.05 12 10.1 12 5 12 C5 10.35 5 8.7 5 7 C3.68 6.67 2.36 6.34 1 6 C0.67 4.02 0.34 2.04 0 0 Z " fill="#91C0D5" transform="translate(385,38)"/>
<path d="M0 0 C0.33 0 0.66 0 1 0 C1 1.65 1 3.3 1 5 C1.66 5 2.32 5 3 5 C3 6.65 3 8.3 3 10 C3.99 10.33 4.98 10.66 6 11 C6 12.65 6 14.3 6 16 C9.3 16 12.6 16 16 16 C16 14.35 16 12.7 16 11 C17.32 11.33 18.64 11.66 20 12 C19.01 12 18.02 12 17 12 C17 13.65 17 15.3 17 17 C13.04 17 9.08 17 5 17 C5 15.35 5 13.7 5 12 C3.68 11.67 2.36 11.34 1 11 C0.67 7.37 0.34 3.74 0 0 Z " fill="#90BFD6" transform="translate(255,33)"/>
<path d="M0 0 C1.65 0 3.3 0 5 0 C5 1.65 5 3.3 5 5 C3.68 5 2.36 5 1 5 C1.33 11.93 1.66 18.86 2 26 C1.34 26 0.68 26 0 26 C0 17.42 0 8.84 0 0 Z " fill="#97C8ED" transform="translate(177,23)"/>
<path d="M0 0 C13.365 0.495 13.365 0.495 27 1 C27 1.33 27 1.66 27 2 C18.02243049 3.3300103 9.05168034 3.08788039 0 3 C0 2.01 0 1.02 0 0 Z " fill="#89837D" transform="translate(49,62)"/>
<path d="M0 0 C0.33 1.32 0.66 2.64 1 4 C1.99 4 2.98 4 4 4 C4 11.26 4 18.52 4 26 C2.02 26 0.04 26 -2 26 C-1.67 24.68 -1.34 23.36 -1 22 C-1 22.66 -1 23.32 -1 24 C-0.34 24 0.32 24 1 24 C2.18031238 20.15158652 2.33235351 16.241721 2.5625 12.25 C2.60568359 11.55261719 2.64886719 10.85523438 2.69335938 10.13671875 C2.79889596 8.42468078 2.8998991 6.71236439 3 5 C2.01 5 1.02 5 0 5 C0 3.35 0 1.7 0 0 Z " fill="#A1CEEF" transform="translate(195,23)"/>
<path d="M0 0 C5.45769811 -0.11138159 10.61509359 0.08342019 16 1 C16 3.97 16 6.94 16 10 C15.01 10.495 15.01 10.495 14 11 C13.34 8.69 12.68 6.38 12 4 C6.06 2.515 6.06 2.515 0 1 C0 0.67 0 0.34 0 0 Z " fill="#696969" transform="translate(77,16)"/>
<path d="M0 0 C0.99 0.33 1.98 0.66 3 1 C2.34 1 1.68 1 1 1 C1 4.63 1 8.26 1 12 C0.01 12.495 0.01 12.495 -1 13 C-1 15.64 -1 18.28 -1 21 C1.31 21 3.62 21 6 21 C6 21.33 6 21.66 6 22 C3.03 22 0.06 22 -3 22 C-3.05410687 20.22950311 -3.09284119 18.45853151 -3.125 16.6875 C-3.14820313 15.70136719 -3.17140625 14.71523438 -3.1953125 13.69921875 C-3 11 -3 11 -1 8 C-0.54860541 5.9507906 -0.54860541 5.9507906 -0.375 3.8125 C-0.25125 2.554375 -0.1275 1.29625 0 0 Z " fill="#B1B1B1" transform="translate(64,23)"/>
<path d="M0 0 C0.66 0.33 1.32 0.66 2 1 C2 2.65 2 4.3 2 6 C1.34 6 0.68 6 0 6 C0.66 9.96 1.32 13.92 2 18 C2.99 18.33 3.98 18.66 5 19 C5 20.65 5 22.3 5 24 C-0.74595714 19.65170811 -1.99078222 13.97184118 -3 7 C-2.67 6.34 -2.34 5.68 -2 5 C-1.34 5 -0.68 5 0 5 C0 3.35 0 1.7 0 0 Z " fill="#495356" transform="translate(255,26)"/>
<path d="M0 0 C1.65 0 3.3 0 5 0 C5 1.65 5 3.3 5 5 C4.34 5 3.68 5 3 5 C3 6.32 3 7.64 3 9 C3.99 9 4.98 9 6 9 C6.33 8.01 6.66 7.02 7 6 C7 7.32 7 8.64 7 10 C5.35 10 3.7 10 2 10 C1.67 9.01 1.34 8.02 1 7 C-1.00016466 5.79117904 -1.00016466 5.79117904 -3 5 C-2.01 5 -1.02 5 0 5 C0 3.35 0 1.7 0 0 Z " fill="#A5CBED" transform="translate(313,13)"/>
<path d="M0 0 C0 0.33 0 0.66 0 1 C-0.9075 1.12375 -1.815 1.2475 -2.75 1.375 C-5.93972387 1.98840844 -8.65814004 2.65814004 -11 5 C-12.99958364 5.04080783 -15.00045254 5.04254356 -17 5 C-17.33 4.01 -17.66 3.02 -18 2 C-11.85221129 0.3722167 -6.35987804 -0.20190089 0 0 Z " fill="#DED7D4" transform="translate(68,58)"/>
<path d="M0 0 C0.33 0.99 0.66 1.98 1 3 C2.32 3 3.64 3 5 3 C5.66 4.65 6.32 6.3 7 8 C4.03 8 1.06 8 -2 8 C-2 6.68 -2 5.36 -2 4 C-1.34 4 -0.68 4 0 4 C0 2.68 0 1.36 0 0 Z " fill="#A9D3F9" transform="translate(239,41)"/>
<path d="M0 0 C-0.66 3.3 -1.32 6.6 -2 10 C-2.33 10 -2.66 10 -3 10 C-3 8.35 -3 6.7 -3 5 C-4.98 5 -6.96 5 -9 5 C-8.34 4.67 -7.68 4.34 -7 4 C-7 2.68 -7 1.36 -7 0 C-3.98968256 -0.93423645 -3.13349732 -1.04449911 0 0 Z " fill="#9FC9F3" transform="translate(264,28)"/>
<path d="M0 0 C3.63 0.33 7.26 0.66 11 1 C11 1.99 11 2.98 11 4 C7.94736336 4.98120464 6.05263664 4.98120464 3 4 C2.67 4.66 2.34 5.32 2 6 C1.34 4.02 0.68 2.04 0 0 Z " fill="#929292" transform="translate(48,9)"/>
<path d="M0 0 C2.64 0 5.28 0 8 0 C8 1.65 8 3.3 8 5 C5.36 5 2.72 5 0 5 C0 3.35 0 1.7 0 0 Z " fill="#92C3D2" transform="translate(159,28)"/>
<path d="M0 0 C2.64 0 5.28 0 8 0 C8 1.65 8 3.3 8 5 C5.36 5 2.72 5 0 5 C0 3.35 0 1.7 0 0 Z " fill="#95C4D2" transform="translate(393,28)"/>
<path d="M0 0 C2.31 0 4.62 0 7 0 C7.33 1.65 7.66 3.3 8 5 C4.7 5.33 1.4 5.66 -2 6 C-2 5.01 -2 4.02 -2 3 C-0.68 3.33 0.64 3.66 2 4 C1.34 2.68 0.68 1.36 0 0 Z " fill="#8EC4FD" transform="translate(394,33)"/>
<path d="M0 0 C1.65 0 3.3 0 5 0 C5 2.31 5 4.62 5 7 C3.35 7.66 1.7 8.32 0 9 C0 6.03 0 3.06 0 0 Z " fill="#A4CFFB" transform="translate(320,31)"/>
<path d="M0 0 C4.29 0 8.58 0 13 0 C13 1.32 13 2.64 13 4 C11.58297487 3.85769192 10.1663904 3.71099254 8.75 3.5625 C7.56664062 3.44068359 7.56664062 3.44068359 6.359375 3.31640625 C4.17635361 3.02365007 2.1226818 2.57935581 0 2 C0 1.34 0 0.68 0 0 Z " fill="#A5CFFC" transform="translate(157,23)"/>
<path d="M0 0 C0.1875 3.375 0.1875 3.375 0 7 C-0.99 7.66 -1.98 8.32 -3 9 C-3.2475 8.195625 -3.495 7.39125 -3.75 6.5625 C-4.72238859 3.828919 -4.72238859 3.828919 -7.125 3.1875 C-7.74375 3.125625 -8.3625 3.06375 -9 3 C-5.55930376 0.70620251 -4.27709699 0 0 0 Z " fill="#B8B5B2" transform="translate(44,5)"/>
<path d="M0 0 C1.65 0 3.3 0 5 0 C4.67 2.31 4.34 4.62 4 7 C5.32 7.33 6.64 7.66 8 8 C2.58461538 9.23076923 2.58461538 9.23076923 -0.375 8.0625 C-0.91125 7.711875 -1.4475 7.36125 -2 7 C-1.01 6.67 -0.02 6.34 1 6 C0.67 4.02 0.34 2.04 0 0 Z " fill="#8DBFF0" transform="translate(285,37)"/>
<path d="M0 0 C-0.99 2.31 -1.98 4.62 -3 7 C-3.99 7 -4.98 7 -6 7 C-6 7.99 -6 8.98 -6 10 C-4.68 10 -3.36 10 -2 10 C-2 12.31 -2 14.62 -2 17 C-2.33 17 -2.66 17 -3 17 C-3 15.02 -3 13.04 -3 11 C-4.32 11 -5.64 11 -7 11 C-7 9.35 -7 7.7 -7 6 C-6.01 6 -5.02 6 -4 6 C-4 4.35 -4 2.7 -4 1 C-5.98 1 -7.96 1 -10 1 C-10 0.67 -10 0.34 -10 0 C-3.375 -1.125 -3.375 -1.125 0 0 Z " fill="#6B8C95" transform="translate(332,12)"/>
<path d="M0 0 C1.65 0 3.3 0 5 0 C5 2.64 5 5.28 5 8 C4.01 8 3.02 8 2 8 C2 7.01 2 6.02 2 5 C1.34 5 0.68 5 0 5 C0 3.35 0 1.7 0 0 Z " fill="#74B4FD" transform="translate(256,33)"/>
<path d="M0 0 C6.6 0 13.2 0 20 0 C20 0.33 20 0.66 20 1 C16.7 1 13.4 1 10 1 C10 2.65 10 4.3 10 6 C9.01 6 8.02 6 7 6 C7 4.35 7 2.7 7 1 C4.69 1 2.38 1 0 1 C0 0.67 0 0.34 0 0 Z " fill="#78A5B4" transform="translate(125,22)"/>
<path d="M0 0 C1.98 0 3.96 0 6 0 C6 1.65 6 3.3 6 5 C4.68 5 3.36 5 2 5 C1.67 5.66 1.34 6.32 1 7 C0.01 6.34 -0.98 5.68 -2 5 C-1.34 5 -0.68 5 0 5 C0 3.35 0 1.7 0 0 Z " fill="#ADD1F5" transform="translate(322,13)"/>
<path d="M0 0 C0.99 0 1.98 0 3 0 C3 3.63 3 7.26 3 11 C3.66 11 4.32 11 5 11 C5 13.31 5 15.62 5 18 C3.02 18 1.04 18 -1 18 C-1 17.67 -1 17.34 -1 17 C0.65 17 2.3 17 4 17 C4 15.35 4 13.7 4 12 C3.34 12 2.68 12 2 12 C1.34 8.04 0.68 4.08 0 0 Z " fill="#A5D2E6" transform="translate(220,32)"/>
<path d="M0 0 C1.65 0 3.3 0 5 0 C5 2.97 5 5.94 5 9 C4.01 8.01 3.02 7.02 2 6 C1.01 6.495 1.01 6.495 0 7 C0 4.69 0 2.38 0 0 Z " fill="#84BCFA" transform="translate(193,30)"/>
<path d="M0 0 C4.29 0 8.58 0 13 0 C13 0.66 13 1.32 13 2 C6.565 2.495 6.565 2.495 0 3 C0 2.01 0 1.02 0 0 Z " fill="#ABD2FD" transform="translate(365,23)"/>
<path d="M0 0 C0.33 0.99 0.66 1.98 1 3 C5.29 3.66 9.58 4.32 14 5 C14 5.33 14 5.66 14 6 C11.03 6 8.06 6 5 6 C5 6.66 5 7.32 5 8 C3.68 8 2.36 8 1 8 C0.67 5.36 0.34 2.72 0 0 Z " fill="#909090" transform="translate(51,48)"/>
<path d="M0 0 C1.79068573 2.6860286 2.66055791 4.6626589 3.625 7.6875 C3.88539063 8.49574219 4.14578125 9.30398437 4.4140625 10.13671875 C4.60742188 10.75160156 4.80078125 11.36648437 5 12 C4.01 12.33 3.02 12.66 2 13 C2 12.34 2 11.68 2 11 C1.34 11 0.68 11 0 11 C0 7.37 0 3.74 0 0 Z " fill="#85C1FD" transform="translate(130,26)"/>
<path d="M0 0 C2.31 0 4.62 0 7 0 C7.33 0.66 7.66 1.32 8 2 C7.01 2.66 6.02 3.32 5 4 C4.67 4.99 4.34 5.98 4 7 C3.34 6.34 2.68 5.68 2 5 C1.01 5.495 1.01 5.495 0 6 C0 4.02 0 2.04 0 0 Z " fill="#AAAAAA" transform="translate(68,35)"/>
<path d="M0 0 C0.66 0 1.32 0 2 0 C2.33 1.98 2.66 3.96 3 6 C4.98 6 6.96 6 9 6 C9 6.33 9 6.66 9 7 C7.02 7 5.04 7 3 7 C2.67 7.99 2.34 8.98 2 10 C1.34 10 0.68 10 0 10 C0 6.7 0 3.4 0 0 Z " fill="#8D8DAB" transform="translate(65,24)"/>
<path d="M0 0 C0.79921875 0.02707031 1.5984375 0.05414063 2.421875 0.08203125 C3.02515625 0.11683594 3.6284375 0.15164063 4.25 0.1875 C4.58 1.1775 4.91 2.1675 5.25 3.1875 C0.63 3.1875 -3.99 3.1875 -8.75 3.1875 C-4.25 -0.1875 -4.25 -0.1875 0 0 Z " fill="#C1C1C1" transform="translate(73.75,11.8125)"/>
<path d="M0 0 C1.98 0 3.96 0 6 0 C6 1.65 6 3.3 6 5 C4.02 5 2.04 5 0 5 C0 3.35 0 1.7 0 0 Z " fill="#AFD2F6" transform="translate(341,13)"/>
<path d="M0 0 C0.33 0 0.66 0 1 0 C1 1.65 1 3.3 1 5 C2.32 5 3.64 5 5 5 C5.33 3.68 5.66 2.36 6 1 C8.09350689 4.4019487 8.17942163 7.05272412 8 11 C7.34 11 6.68 11 6 11 C5.67 9.68 5.34 8.36 5 7 C3.35 6.67 1.7 6.34 0 6 C0 4.02 0 2.04 0 0 Z " fill="#ADDAF2" transform="translate(289,38)"/>
<path d="M0 0 C2.18043828 2.18043828 2.56240225 3.02433527 3 6 C2.5625 8.25 2.5625 8.25 2 10 C0.35 9.67 -1.3 9.34 -3 9 C-3 10.65 -3 12.3 -3 14 C-3.33 14 -3.66 14 -4 14 C-4 12.02 -4 10.04 -4 8 C-2.68 8 -1.36 8 0 8 C0 5.36 0 2.72 0 0 Z " fill="#A2D1F5" transform="translate(129,35)"/>
<path d="M0 0 C0.66 0 1.32 0 2 0 C2.33 3.3 2.66 6.6 3 10 C2.67 9.34 2.34 8.68 2 8 C1.34 7.855625 0.68 7.71125 0 7.5625 C-0.66 7.376875 -1.32 7.19125 -2 7 C-2.33 6.01 -2.66 5.02 -3 4 C-2.34 4 -1.68 4 -1 4 C-0.67 2.68 -0.34 1.36 0 0 Z " fill="#61A5F0" transform="translate(271,33)"/>
<path d="M0 0 C0.99 0 1.98 0 3 0 C3 2.97 3 5.94 3 9 C2.01 9 1.02 9 0 9 C0 6.03 0 3.06 0 0 Z " fill="#6A6361" transform="translate(26,37)"/>
<path d="M0 0 C2.31 0 4.62 0 7 0 C6.67 1.32 6.34 2.64 6 4 C5.67 3.01 5.34 2.02 5 1 C4.01 1.66 3.02 2.32 2 3 C1.74984127 6.58357241 1.74984127 6.58357241 2 10 C1.34 9.67 0.68 9.34 0 9 C0 6.03 0 3.06 0 0 Z " fill="#84BAFA" transform="translate(178,28)"/>
<path d="M0 0 C1.65 0 3.3 0 5 0 C5 1.65 5 3.3 5 5 C5.66 5 6.32 5 7 5 C7 6.98 7 8.96 7 11 C4.02851677 7.64509957 2.7320922 5.3925532 2 1 C1.34 0.67 0.68 0.34 0 0 Z " fill="#7FBDFD" transform="translate(399,23)"/>
<path d="M0 0 C1.98 0 3.96 0 6 0 C6.33 1.65 6.66 3.3 7 5 C5.35 5 3.7 5 2 5 C1.34 3.35 0.68 1.7 0 0 Z " fill="#8CC6FE" transform="translate(391,23)"/>
<path d="M0 0 C0.33 0 0.66 0 1 0 C2.32286246 4.96073422 2.08893197 9.91111512 2 15 C1.34 14.67 0.68 14.34 0 14 C0.33 11.69 0.66 9.38 1 7 C-0.32 7 -1.64 7 -3 7 C-3 6.01 -3 5.02 -3 4 C-2.01 4 -1.02 4 0 4 C0 2.68 0 1.36 0 0 Z " fill="#191B1C" transform="translate(329,15)"/>
<path d="M0 0 C2.64 0 5.28 0 8 0 C8.33 0.99 8.66 1.98 9 3 C2.565 3.495 2.565 3.495 -4 4 C-4 3.34 -4 2.68 -4 2 C-2.68 2 -1.36 2 0 2 C0 1.34 0 0.68 0 0 Z " fill="#AAAAAA" transform="translate(79,13)"/>
<path d="M0 0 C2.64 0 5.28 0 8 0 C8 0.99 8 1.98 8 3 C5.03 3 2.06 3 -1 3 C-0.67 2.01 -0.34 1.02 0 0 Z " fill="#F9F4ED" transform="translate(83,57)"/>
<path d="M0 0 C0.66 0.33 1.32 0.66 2 1 C1.67 2.32 1.34 3.64 1 5 C1.66 5 2.32 5 3 5 C3 7.97 3 10.94 3 14 C2.01 14.33 1.02 14.66 0 15 C0 14.34 0 13.68 0 13 C0.66 13 1.32 13 2 13 C2 10.69 2 8.38 2 6 C1.01 6 0.02 6 -1 6 C-1.042721 4.33388095 -1.04063832 2.66617115 -1 1 C-0.67 0.67 -0.34 0.34 0 0 Z " fill="#343B3C" transform="translate(302,26)"/>
<path d="M0 0 C2.475 0.495 2.475 0.495 5 1 C5 2.65 5 4.3 5 6 C3.35 6 1.7 6 0 6 C0 4.02 0 2.04 0 0 Z " fill="#84BEFC" transform="translate(154,37)"/>
<path d="M0 0 C0.33 0 0.66 0 1 0 C1 3.3 1 6.6 1 10 C-0.65 9.67 -2.3 9.34 -4 9 C-3.67 7.68 -3.34 6.36 -3 5 C-1.515 5.99 -1.515 5.99 0 7 C0 4.69 0 2.38 0 0 Z " fill="#B4DFF8" transform="translate(315,39)"/>
<path d="M0 0 C1.125 1.6875 1.125 1.6875 2 4 C1.125 6.75 1.125 6.75 0 9 C-0.99 9 -1.98 9 -3 9 C-3 7.02 -3 5.04 -3 3 C-2.01 3 -1.02 3 0 3 C0 2.01 0 1.02 0 0 Z " fill="#9DC4D9" transform="translate(205,35)"/>
<path d="M0 0 C1.98 0.495 1.98 0.495 4 1 C4 2.32 4 3.64 4 5 C3.34 5 2.68 5 2 5 C2 4.34 2 3.68 2 3 C1.34 3 0.68 3 0 3 C0.33 4.65 0.66 6.3 1 8 C0.01 8.495 0.01 8.495 -1 9 C-1.125 2.25 -1.125 2.25 0 0 Z " fill="#8EC3FB" transform="translate(236,32)"/>
<path d="M0 0 C0 1.32 0 2.64 0 4 C1.65 4 3.3 4 5 4 C5 4.33 5 4.66 5 5 C2.03 5 -0.94 5 -4 5 C-4.33 4.01 -4.66 3.02 -5 2 C-2 0 -2 0 0 0 Z " fill="#48433E" transform="translate(49,61)"/>
<path d="M0 0 C1.65 0 3.3 0 5 0 C5 1.65 5 3.3 5 5 C3.68 5 2.36 5 1 5 C0.67 3.35 0.34 1.7 0 0 Z " fill="#A5CBFC" transform="translate(289,23)"/>
<path d="M0 0 C1.65 0 3.3 0 5 0 C5 1.32 5 2.64 5 4 C3.68 4 2.36 4 1 4 C0.67 4.66 0.34 5.32 0 6 C0 4.02 0 2.04 0 0 Z " fill="#80BBFD" transform="translate(375,39)"/>
<path d="M0 0 C0.99 0 1.98 0 3 0 C3.66 1.65 4.32 3.3 5 5 C3.35 5 1.7 5 0 5 C0 3.35 0 1.7 0 0 Z " fill="#B1DEFF" transform="translate(241,44)"/>
<path d="M0 0 C0.66 0.33 1.32 0.66 2 1 C1.34 3.31 0.68 5.62 0 8 C-1.32 7.34 -2.64 6.68 -4 6 C-2.89131683 3.78263366 -1.50559539 1.96382007 0 0 Z " fill="#83BAF1" transform="translate(262,37)"/>
<path d="M0 0 C1.65 0 3.3 0 5 0 C5 1.32 5 2.64 5 4 C3.35 4 1.7 4 0 4 C0 2.68 0 1.36 0 0 Z " fill="#222728" transform="translate(210,39)"/>
<path d="M0 0 C0.33 0 0.66 0 1 0 C1.33 1.98 1.66 3.96 2 6 C-0.31 6.66 -2.62 7.32 -5 8 C-5.33 7.34 -5.66 6.68 -6 6 C-4.6875 4.5 -4.6875 4.5 -3 3 C-2.01 3 -1.02 3 0 3 C0 2.01 0 1.02 0 0 Z " fill="#B6B6B7" transform="translate(78,32)"/>
<path d="M0 0 C0.66 0 1.32 0 2 0 C3.5625 2.8125 3.5625 2.8125 5 6 C4.67 6.99 4.34 7.98 4 9 C3.67 8.01 3.34 7.02 3 6 C2.34 6 1.68 6 1 6 C0.67 4.02 0.34 2.04 0 0 Z " fill="#77BAFF" transform="translate(388,28)"/>
<path d="M0 0 C1.32 0 2.64 0 4 0 C4 1.65 4 3.3 4 5 C2.68 5 1.36 5 0 5 C0 3.35 0 1.7 0 0 Z " fill="#B1D7FD" transform="translate(178,23)"/>
<path d="M0 0 C0.33 0 0.66 0 1 0 C1 2.97 1 5.94 1 9 C0.01 8.34 -0.98 7.68 -2 7 C-1.125 2.25 -1.125 2.25 0 0 Z " fill="#797979" transform="translate(93,24)"/>
<path d="M0 0 C2.29013653 3.4352048 2.17842973 4.985331 2 9 C1.7525 8.38125 1.505 7.7625 1.25 7.125 C-0.20628639 4.64931313 -1.37812506 4.04874998 -4 3 C-4 2.34 -4 1.68 -4 1 C-2.68 0.67 -1.36 0.34 0 0 Z " fill="#908C89" transform="translate(39,8)"/>
<path d="M0 0 C0.66 0.33 1.32 0.66 2 1 C2 2.32 2 3.64 2 5 C0.35 5 -1.3 5 -3 5 C-3 4.01 -3 3.02 -3 2 C-2.01 2 -1.02 2 0 2 C0 1.34 0 0.68 0 0 Z " fill="#BABABA" transform="translate(69,39)"/>
<path d="M0 0 C2 2 2 2 2 5 C0.68 5.33 -0.64 5.66 -2 6 C-2 4.35 -2 2.7 -2 1 C-1.34 0.67 -0.68 0.34 0 0 Z " fill="#59A6F7" transform="translate(388,32)"/>
<path d="M0 0 C1.98 0 3.96 0 6 0 C6 0.99 6 1.98 6 3 C4.02 3 2.04 3 0 3 C0 2.01 0 1.02 0 0 Z " fill="#151819" transform="translate(394,29)"/>
<path d="M0 0 C1.98 0 3.96 0 6 0 C6 0.99 6 1.98 6 3 C4.02 3 2.04 3 0 3 C0 2.01 0 1.02 0 0 Z " fill="#151819" transform="translate(160,29)"/>
<path d="M0 0 C1.32 0 2.64 0 4 0 C4.33 1.65 4.66 3.3 5 5 C3.68 4.67 2.36 4.34 1 4 C0.67 2.68 0.34 1.36 0 0 Z " fill="#4D9DF3" transform="translate(161,33)"/>
<path d="M0 0 C0.86625 0.3403125 0.86625 0.3403125 1.75 0.6875 C1.42 1.6775 1.09 2.6675 0.75 3.6875 C-1.56 3.3575 -3.87 3.0275 -6.25 2.6875 C-2.80384615 -0.38942308 -2.80384615 -0.38942308 0 0 Z " fill="#AEAEAE" transform="translate(58.25,10.3125)"/>
<path d="M0 0 C4 1 4 1 4 1 Z " fill="#A8A8A8" transform="translate(134,55)"/>
<path d="" fill="#8A8A8A" transform="translate(0,0)"/>
<path d="M0 0 C2 1 2 1 2 1 Z " fill="#797979" transform="translate(183,53)"/>
<path d="" fill="#888888" transform="translate(0,0)"/>
<path d="" fill="#606060" transform="translate(0,0)"/>
<path d="M0 0 C2 1 2 1 2 1 Z " fill="#606060" transform="translate(142,37)"/>
<path d="" fill="#9D9D9D" transform="translate(0,0)"/>
<path d="" fill="#EEEEEE" transform="translate(0,0)"/>
<path d="" fill="#A1A1A1" transform="translate(0,0)"/>
<path d="" fill="#A4A4A4" transform="translate(0,0)"/>
<path d="" fill="#B2B2B2" transform="translate(0,0)"/>
<path d="" fill="#989898" transform="translate(0,0)"/>
<path d="" fill="#878787" transform="translate(0,0)"/>
<path d="" fill="#808080" transform="translate(0,0)"/>
<path d="" fill="#808080" transform="translate(0,0)"/>
<path d="" fill="#828282" transform="translate(0,0)"/>
<path d="" fill="#AAAAAA" transform="translate(0,0)"/>
<path d="" fill="#878787" transform="translate(0,0)"/>
<path d="" fill="#9E9E9E" transform="translate(0,0)"/>
<path d="" fill="#A4A4A4" transform="translate(0,0)"/>
<path d="" fill="#5A5A5A" transform="translate(0,0)"/>
<path d="" fill="#595959" transform="translate(0,0)"/>
<path d="" fill="#A1A1A1" transform="translate(0,0)"/>
<path d="" fill="#818181" transform="translate(0,0)"/>
<path d="" fill="#5A5A5A" transform="translate(0,0)"/>
<path d="" fill="#656565" transform="translate(0,0)"/>
<path d="" fill="#888888" transform="translate(0,0)"/>
<path d="" fill="#999999" transform="translate(0,0)"/>
<path d="" fill="#6D6D6D" transform="translate(0,0)"/>
<path d="" fill="#868686" transform="translate(0,0)"/>
<path d="" fill="#A1A1A1" transform="translate(0,0)"/>
<path d="" fill="#454545" transform="translate(0,0)"/>
<path d="" fill="#A5A5A5" transform="translate(0,0)"/>
<path d="" fill="#A6A6A6" transform="translate(0,0)"/>
<path d="" fill="#656565" transform="translate(0,0)"/>
<path d="" fill="#DDDDDD" transform="translate(0,0)"/>
<path d="" fill="#656565" transform="translate(0,0)"/>
<path d="" fill="#6D6D6D" transform="translate(0,0)"/>
<path d="" fill="#6A6A6A" transform="translate(0,0)"/>
<path d="" fill="#707070" transform="translate(0,0)"/>
<path d="" fill="#6B6B6B" transform="translate(0,0)"/>
<path d="" fill="#6A6A6A" transform="translate(0,0)"/>
<path d="" fill="#858585" transform="translate(0,0)"/>
<path d="" fill="#828282" transform="translate(0,0)"/>
<path d="" fill="#696969" transform="translate(0,0)"/>
<path d="" fill="#C5C5C5" transform="translate(0,0)"/>
<path d="" fill="#B7B7B7" transform="translate(0,0)"/>
<path d="" fill="#888888" transform="translate(0,0)"/>
<path d="" fill="#888888" transform="translate(0,0)"/>
<path d="" fill="#EEEEEE" transform="translate(0,0)"/>
</svg>
